<svg data-cwssvg-init  class="001-digital-marketing-7.svg" version="1.1" xmlns="http://www.w3.org/2000/svg" xmlns:xlink="http://www.w3.org/1999/xlink" x="0px" y="0px" viewBox="0 0 512 512" style="enable-background:new 0 0 512 512;" xml:space="preserve">
<path class="cwssvgi_0" d="M509.07,78.139l-75.22-75.21C431.975,1.054,429.432,0,426.779,0H204.424c-5.522,0-10,4.478-10,10v31 c0,5.522,4.478,10,10,10c5.522,0,10-4.478,10-10V20h202.355v65.221c0,5.522,4.478,10,10,10H492v311.467h-34V357 c0-10.855-3.554-20.893-9.551-29.023C453.762,327.74,458,323.371,458,318v-64c0-5.522-4.478-10-10-10h-48c-5.522,0-10,4.478-10,10 v54h-18.947v-32c0-5.522-4.478-10-10-10h-48c-5.522,0-10,4.478-10,10v32H283v-69.137c0-5.522-4.478-10-10-10h-26.333 c-5.522,0-10,4.478-10,10c0,5.522,4.478,10,10,10H263V308h-24v-29.167C239,260.729,224.271,246,206.167,246h-16.893 c-10.201,0-18.5-8.299-18.5-18.5s8.299-18.5,18.5-18.5h136.393c5.522,0,10-4.478,10-10c0-5.522-4.478-10-10-10H189.274 c-21.229,0-38.5,17.271-38.5,38.5s17.271,38.5,38.5,38.5h16.893c7.076,0,12.833,5.757,12.833,12.833V308H49 c-27.019,0-49,21.981-49,49v106c0,27.019,21.981,49,49,49h360c27.019,0,49-21.981,49-49v-36.313h44c5.522,0,10-4.478,10-10V85.21 C512,82.558,510.946,80.014,509.07,78.139z M436.779,75.221V34.14l41.087,41.081H436.779z M323.053,286h28v22h-28V286z M438,463 c0,15.99-13.01,29-29,29H49c-15.99,0-29-13.01-29-29V357c0-15.99,13.01-29,29-29h360c15.99,0,29,13.01,29,29V463z M438,308h-28 v-44h28V308z"/>
<path class="cwssvgi_1" d="M108.509,364.359c-1.86-1.85-4.44-2.92-7.07-2.92s-5.21,1.07-7.069,2.92c-1.86,1.87-2.931,4.45-2.931,7.08 c0,2.63,1.07,5.21,2.931,7.07c1.859,1.861,4.44,2.93,7.069,2.93c2.63,0,5.21-1.069,7.07-2.93c1.86-1.861,2.93-4.44,2.93-7.07 S110.37,366.229,108.509,364.359z"/>
<path class="cwssvgi_2" d="M151.667,361.438h-7.708c-5.522,0-10,4.478-10,10c0,5.522,4.478,10,10,10h7.708c5.522,0,10-4.478,10-10 C161.667,365.916,157.189,361.438,151.667,361.438z"/>
<path class="cwssvgi_3" d="M193.549,364.37c-1.86-1.87-4.44-2.931-7.07-2.931s-5.21,1.061-7.069,2.931c-1.86,1.859-2.931,4.439-2.931,7.069 s1.07,5.21,2.931,7.07c1.86,1.861,4.44,2.93,7.069,2.93c2.63,0,5.21-1.069,7.07-2.93c1.86-1.87,2.93-4.44,2.93-7.07 S195.41,366.229,193.549,364.37z"/>
<path class="cwssvgi_4" d="M236.069,364.37c-1.859-1.86-4.439-2.931-7.069-2.931s-5.21,1.07-7.07,2.931c-1.86,1.859-2.93,4.43-2.93,7.069 c0,2.63,1.069,5.21,2.93,7.07c1.861,1.86,4.44,2.93,7.07,2.93s5.21-1.069,7.069-2.93c1.86-1.86,2.931-4.44,2.931-7.07 C239,368.799,237.93,366.229,236.069,364.37z"/>
<path class="cwssvgi_5" d="M278.59,364.37c-1.86-1.87-4.44-2.931-7.07-2.931s-5.21,1.061-7.069,2.931c-1.86,1.85-2.931,4.43-2.931,7.069 c0,2.63,1.07,5.21,2.931,7.07c1.859,1.861,4.439,2.93,7.069,2.93s5.21-1.069,7.07-2.93c1.86-1.861,2.93-4.44,2.93-7.07 C281.52,368.799,280.451,366.229,278.59,364.37z"/>
<path class="cwssvgi_6" d="M321.109,364.37c-1.859-1.86-4.439-2.931-7.069-2.931s-5.21,1.07-7.07,2.931c-1.86,1.859-2.93,4.43-2.93,7.069 c0,2.63,1.069,5.21,2.93,7.07c1.861,1.86,4.44,2.93,7.07,2.93s5.21-1.069,7.069-2.93c1.86-1.86,2.931-4.44,2.931-7.07 S322.97,366.229,321.109,364.37z"/>
<path class="cwssvgi_7" d="M363.63,364.37c-1.86-1.87-4.44-2.931-7.07-2.931s-5.21,1.061-7.069,2.931c-1.86,1.859-2.931,4.43-2.931,7.069 c0,2.63,1.07,5.21,2.931,7.07c1.859,1.861,4.439,2.93,7.069,2.93s5.21-1.069,7.07-2.93c1.86-1.861,2.93-4.44,2.93-7.07 C366.56,368.799,365.491,366.229,363.63,364.37z"/>
<path class="cwssvgi_8" d="M108.509,454.87c-1.86-1.86-4.44-2.931-7.07-2.931s-5.21,1.07-7.069,2.931c-1.86,1.859-2.931,4.43-2.931,7.069 c0,2.63,1.07,5.21,2.931,7.07c1.859,1.86,4.439,2.93,7.069,2.93s5.21-1.069,7.07-2.93c1.86-1.861,2.93-4.44,2.93-7.07 C111.439,459.299,110.37,456.729,108.509,454.87z"/>
<path class="cwssvgi_9" d="M151.029,454.87c-1.859-1.87-4.439-2.931-7.069-2.931s-5.21,1.061-7.07,2.931c-1.86,1.859-2.93,4.439-2.93,7.069 s1.069,5.21,2.93,7.07c1.861,1.86,4.44,2.93,7.07,2.93s5.21-1.069,7.069-2.93c1.86-1.86,2.931-4.44,2.931-7.07 C153.96,459.299,152.89,456.729,151.029,454.87z"/>
<path class="cwssvgi_10" d="M271.731,451.938h-85.252c-5.522,0-10,4.478-10,10c0,5.522,4.478,10,10,10h42.482c0.013,0,0.026,0.002,0.039,0.002 s0.026-0.002,0.039-0.002h42.442c0.013,0,0.026,0.002,0.039,0.002s0.026-0.002,0.039-0.002h0.173c5.522,0,10-4.478,10-10 C281.732,456.416,277.254,451.938,271.731,451.938z"/>
<path class="cwssvgi_11" d="M321.109,454.87c-1.859-1.86-4.439-2.931-7.069-2.931s-5.21,1.07-7.07,2.931c-1.86,1.859-2.93,4.43-2.93,7.069 c0,2.63,1.069,5.21,2.93,7.07c1.861,1.86,4.44,2.93,7.07,2.93s5.21-1.069,7.069-2.93c1.86-1.86,2.931-4.44,2.931-7.07 C324.04,459.299,322.97,456.729,321.109,454.87z"/>
<path class="cwssvgi_12" d="M363.652,451.938h-7.091c-5.522,0-10,4.478-10,10c0,5.522,4.478,10,10,10h7.091c5.522,0,10-4.478,10-10 C373.652,456.416,369.175,451.938,363.652,451.938z"/>
<path class="cwssvgi_13" d="M65.139,409.609c-1.86-1.859-4.439-2.92-7.07-2.92c-2.63,0-5.21,1.061-7.069,2.92c-1.86,1.87-2.931,4.45-2.931,7.08 c0,2.63,1.07,5.21,2.931,7.07c1.859,1.86,4.439,2.93,7.069,2.93c2.631,0,5.21-1.069,7.07-2.93c1.87-1.86,2.93-4.44,2.93-7.07 S67.009,411.479,65.139,409.609z"/>
<path class="cwssvgi_14" d="M107,406.688h-6.195c-5.522,0-10,4.478-10,10c0,5.522,4.478,10,10,10H107c5.522,0,10-4.478,10-10 C117,411.166,112.522,406.688,107,406.688z"/>
<path class="cwssvgi_15" d="M150.609,409.62c-1.869-1.87-4.449-2.931-7.069-2.931c-2.641,0-5.21,1.061-7.08,2.931c-1.86,1.859-2.92,4.43-2.92,7.069 c0,2.63,1.06,5.21,2.92,7.07c1.87,1.861,4.439,2.93,7.08,2.93c2.62,0,5.2-1.069,7.069-2.93c1.86-1.86,2.931-4.44,2.931-7.07 C153.54,414.049,152.47,411.479,150.609,409.62z"/>
<path class="cwssvgi_16" d="M193.34,409.62c-1.86-1.86-4.44-2.931-7.07-2.931s-5.21,1.07-7.069,2.931c-1.86,1.859-2.931,4.439-2.931,7.069 s1.07,5.21,2.931,7.07c1.859,1.861,4.439,2.93,7.069,2.93s5.21-1.069,7.07-2.93c1.86-1.861,2.93-4.44,2.93-7.07 C196.27,414.049,195.201,411.479,193.34,409.62z"/>
<path class="cwssvgi_17" d="M236.333,406.688H229c-5.522,0-10,4.478-10,10c0,5.522,4.478,10,10,10h7.333c5.522,0,10-4.478,10-10 C246.333,411.166,241.855,406.688,236.333,406.688z"/>
<path class="cwssvgi_18" d="M280.333,406.688h-8.602c-5.522,0-10,4.478-10,10c0,5.522,4.478,10,10,10h8.602c5.522,0,10-4.478,10-10 C290.333,411.166,285.855,406.688,280.333,406.688z"/>
<path class="cwssvgi_19" d="M321.529,409.62c-1.859-1.86-4.429-2.931-7.069-2.931c-2.63,0-5.21,1.07-7.07,2.931c-1.86,1.859-2.93,4.43-2.93,7.069 c0,2.63,1.069,5.21,2.93,7.07c1.861,1.86,4.44,2.93,7.07,2.93c2.64,0,5.21-1.069,7.069-2.93c1.87-1.86,2.931-4.44,2.931-7.07 C324.46,414.049,323.399,411.479,321.529,409.62z"/>
<path class="cwssvgi_20" d="M364.259,409.609c-1.86-1.859-4.429-2.92-7.07-2.92c-2.63,0-5.199,1.061-7.069,2.92c-1.86,1.87-2.92,4.45-2.92,7.08 c0,2.63,1.06,5.21,2.92,7.07c1.87,1.86,4.439,2.93,7.069,2.93c2.641,0,5.21-1.069,7.07-2.93c1.87-1.86,2.94-4.44,2.94-7.07 S366.129,411.479,364.259,409.609z"/>
<path class="cwssvgi_21" d="M407,409.62c-1.86-1.87-4.44-2.931-7.07-2.931c-2.64,0-5.21,1.061-7.07,2.931c-1.859,1.859-2.93,4.439-2.93,7.069 s1.07,5.21,2.93,7.07s4.431,2.93,7.07,2.93c2.63,0,5.21-1.069,7.07-2.93c1.859-1.87,2.93-4.44,2.93-7.07 S408.86,411.479,407,409.62z"/>
<path class="cwssvgi_22" d="M437.086,189h-66.753c-5.522,0-10,4.478-10,10c0,5.522,4.478,10,10,10h66.753c5.522,0,10-4.478,10-10 C447.086,193.478,442.608,189,437.086,189z"/>
<path class="cwssvgi_23" d="M92.527,0c-5.522,0-10,4.478-10,10v7.365C36.209,22.367,0.029,61.695,0.029,109.32c0,51.003,41.494,92.497,92.498,92.497 c47.624,0,86.953-36.18,91.955-82.497h7.364c5.522,0,10-4.478,10-10C201.847,49.041,152.807,0,92.527,0z M82.527,37.51v47.668 L48.856,51.506C58.496,44.206,70,39.245,82.527,37.51z M92.527,181.818c-39.976,0-72.498-32.522-72.498-72.497 c0-16.39,5.479-31.517,14.684-43.673l50.743,50.744c0.002,0.002,0.004,0.003,0.006,0.005c1.809,1.806,4.307,2.924,7.065,2.924 h71.81C159.452,154.582,129.111,181.818,92.527,181.818z M175.024,99.32h-72.497V26.822v-6.267 c41.281,4.618,74.146,37.483,78.764,78.765H175.024z"/>
<path class="cwssvgi_24" d="M317.149,98h-60.881c-5.522,0-10,4.478-10,10c0,5.522,4.477,10,10,10h60.881c5.522,0,10-4.478,10-10 C327.149,102.478,322.671,98,317.149,98z"/>
<path class="cwssvgi_25" d="M385.39,98h-34.121c-5.523,0-10,4.478-10,10c0,5.522,4.478,10,10,10h34.121c5.522,0,10-4.478,10-10 C395.39,102.478,390.912,98,385.39,98z"/>
<path class="cwssvgi_26" d="M341.672,54h-85.404c-5.522,0-10,4.478-10,10s4.478,10,10,10h85.404c5.522,0,10-4.478,10-10 C351.672,58.478,347.194,54,341.672,54z"/>
<path class="cwssvgi_27" d="M390.13,56.93c-1.861-1.86-4.43-2.93-7.07-2.93c-2.63,0-5.21,1.069-7.069,2.93c-1.86,1.86-2.931,4.43-2.931,7.07 c0,2.63,1.07,5.21,2.931,7.069C377.85,72.93,380.43,74,383.06,74c2.64,0,5.21-1.07,7.07-2.931c1.86-1.859,2.93-4.439,2.93-7.069 C393.06,61.359,391.991,58.79,390.13,56.93z"/>
<path class="cwssvgi_28" d="M336.755,142h-80.487c-5.522,0-10,4.478-10,10c0,5.522,4.477,10,10,10h80.487c5.522,0,10-4.478,10-10 C346.755,146.478,342.277,142,336.755,142z"/>
<path class="cwssvgi_29" d="M375.92,144.93c-1.87-1.86-4.44-2.93-7.08-2.93c-2.63,0-5.21,1.069-7.07,2.93c-1.859,1.86-2.93,4.44-2.93,7.07 s1.07,5.21,2.93,7.069c1.87,1.86,4.44,2.931,7.07,2.931s5.21-1.07,7.08-2.931c1.859-1.859,2.93-4.439,2.93-7.069 S377.78,146.79,375.92,144.93z"/>
<path class="cwssvgi_30" d="M410.04,144.93c-1.87-1.861-4.44-2.93-7.08-2.93c-2.63,0-5.2,1.069-7.061,2.93c-1.87,1.86-2.939,4.44-2.939,7.07 s1.069,5.21,2.939,7.069c1.851,1.86,4.431,2.931,7.061,2.931c2.64,0,5.21-1.07,7.08-2.931c1.859-1.859,2.93-4.439,2.93-7.069 S411.9,146.79,410.04,144.93z"/>
<path class="cwssvgi_31" d="M444.16,144.93c-1.86-1.86-4.44-2.93-7.07-2.93c-2.64,0-5.21,1.069-7.07,2.93c-1.87,1.86-2.93,4.44-2.93,7.07 s1.06,5.21,2.93,7.069c1.86,1.86,4.431,2.931,7.07,2.931c2.63,0,5.2-1.07,7.07-2.931c1.859-1.859,2.93-4.439,2.93-7.069 S446.02,146.79,444.16,144.93z"/></svg>