<svg data-cwssvg-init  class="003-typewriter.svg" version="1.1" xmlns="http://www.w3.org/2000/svg" xmlns:xlink="http://www.w3.org/1999/xlink" x="0px" y="0px" viewBox="0 0 512 512" style="enable-background:new 0 0 512 512;" xml:space="preserve">
<path class="cwssvgi_0" d="M119.78,351.93c-1.86-1.861-4.43-2.93-7.07-2.93c-2.63,0-5.21,1.069-7.07,2.93c-1.859,1.86-2.93,4.43-2.93,7.07 c0,2.63,1.07,5.21,2.93,7.069c1.86,1.86,4.44,2.931,7.07,2.931s5.21-1.07,7.07-2.931c1.859-1.859,2.93-4.439,2.93-7.069 S121.64,353.79,119.78,351.93z"/>
<path class="cwssvgi_1" d="M167.54,351.93c-1.86-1.861-4.431-2.93-7.07-2.93c-2.63,0-5.2,1.069-7.07,2.93c-1.859,1.86-2.92,4.44-2.92,7.07 s1.061,5.21,2.92,7.069c1.86,1.86,4.44,2.931,7.07,2.931c2.64,0,5.22-1.07,7.07-2.931c1.87-1.859,2.939-4.439,2.939-7.069 S169.41,353.79,167.54,351.93z"/>
<path class="cwssvgi_2" d="M215.309,351.93c-1.859-1.86-4.439-2.93-7.069-2.93c-2.631,0-5.21,1.069-7.07,2.93c-1.87,1.86-2.93,4.44-2.93,7.07 s1.06,5.21,2.93,7.069c1.86,1.861,4.439,2.931,7.07,2.931c2.63,0,5.199-1.07,7.069-2.931c1.86-1.859,2.931-4.439,2.931-7.069 S217.17,353.79,215.309,351.93z"/>
<path class="cwssvgi_3" d="M263.069,351.93C261.21,350.07,258.63,349,256,349s-5.21,1.069-7.07,2.93c-1.86,1.861-2.93,4.44-2.93,7.07 s1.069,5.21,2.93,7.069c1.86,1.861,4.44,2.931,7.07,2.931s5.21-1.07,7.069-2.931C264.93,364.21,266,361.63,266,359 S264.93,353.79,263.069,351.93z"/>
<path class="cwssvgi_4" d="M310.83,351.93c-1.86-1.86-4.44-2.93-7.07-2.93s-5.21,1.069-7.07,2.93c-1.859,1.86-2.93,4.43-2.93,7.07 c0,2.63,1.07,5.21,2.93,7.069c1.86,1.861,4.44,2.931,7.07,2.931s5.21-1.07,7.07-2.931c1.859-1.859,2.93-4.439,2.93-7.069 S312.69,353.79,310.83,351.93z"/>
<path class="cwssvgi_5" d="M358.599,351.93c-1.87-1.86-4.439-2.93-7.07-2.93c-2.64,0-5.21,1.069-7.079,2.93c-1.86,1.86-2.931,4.44-2.931,7.07 s1.07,5.21,2.931,7.069c1.86,1.861,4.44,2.931,7.079,2.931c2.631,0,5.2-1.07,7.07-2.931c1.86-1.859,2.93-4.439,2.93-7.069 S360.46,353.79,358.599,351.93z"/>
<path class="cwssvgi_6" d="M406.359,351.93c-1.859-1.86-4.439-2.93-7.069-2.93s-5.21,1.069-7.07,2.93c-1.86,1.861-2.93,4.44-2.93,7.07 s1.069,5.21,2.93,7.069c1.86,1.861,4.44,2.931,7.07,2.931s5.21-1.07,7.069-2.931c1.86-1.859,2.931-4.439,2.931-7.069 S408.22,353.79,406.359,351.93z"/>
<path class="cwssvgi_7" d="M119.78,440.93c-1.86-1.861-4.43-2.93-7.07-2.93c-2.63,0-5.21,1.069-7.07,2.93c-1.859,1.86-2.93,4.44-2.93,7.07 s1.07,5.21,2.93,7.069c1.86,1.86,4.44,2.931,7.07,2.931s5.21-1.07,7.07-2.931c1.859-1.859,2.93-4.439,2.93-7.069 S121.64,442.79,119.78,440.93z"/>
<path class="cwssvgi_8" d="M167.54,440.93c-1.86-1.861-4.431-2.93-7.061-2.93c-2.64,0-5.22,1.069-7.08,2.93c-1.859,1.86-2.92,4.44-2.92,7.07 s1.061,5.21,2.92,7.069c1.87,1.86,4.44,2.931,7.08,2.931c2.63,0,5.2-1.07,7.061-2.931c1.87-1.859,2.939-4.439,2.939-7.069 S169.41,442.79,167.54,440.93z"/>
<path class="cwssvgi_9" d="M304,438h-95.763c-5.522,0-10,4.478-10,10c0,5.522,4.478,10,10,10H304c5.522,0,10-4.478,10-10 C314,442.478,309.522,438,304,438z"/>
<path class="cwssvgi_10" d="M358.599,440.93c-1.859-1.861-4.439-2.93-7.07-2.93c-2.64,0-5.22,1.069-7.079,2.93c-1.86,1.86-2.931,4.44-2.931,7.07 s1.07,5.21,2.931,7.069c1.859,1.86,4.439,2.931,7.079,2.931c2.631,0,5.2-1.07,7.07-2.931c1.86-1.859,2.93-4.439,2.93-7.069 S360.46,442.79,358.599,440.93z"/>
<path class="cwssvgi_11" d="M406.359,440.93c-1.859-1.861-4.439-2.93-7.069-2.93s-5.21,1.069-7.07,2.93c-1.86,1.861-2.93,4.44-2.93,7.07 c0,2.64,1.069,5.21,2.93,7.069c1.86,1.86,4.44,2.931,7.07,2.931s5.21-1.07,7.069-2.931c1.86-1.859,2.931-4.439,2.931-7.069 S408.22,442.79,406.359,440.93z"/>
<path class="cwssvgi_12" d="M71.069,396.43c-1.859-1.861-4.439-2.93-7.069-2.93s-5.21,1.069-7.07,2.93c-1.86,1.861-2.93,4.44-2.93,7.07 s1.069,5.21,2.93,7.069c1.86,1.86,4.44,2.931,7.07,2.931s5.21-1.07,7.069-2.931C72.93,408.71,74,406.13,74,403.5 S72.93,398.29,71.069,396.43z"/>
<path class="cwssvgi_13" d="M119.069,396.43c-1.859-1.86-4.439-2.93-7.069-2.93s-5.21,1.069-7.07,2.93c-1.86,1.861-2.93,4.44-2.93,7.07 s1.069,5.21,2.93,7.069c1.86,1.861,4.44,2.931,7.07,2.931s5.21-1.07,7.069-2.931c1.86-1.859,2.931-4.439,2.931-7.069 S120.93,398.29,119.069,396.43z"/>
<path class="cwssvgi_14" d="M167.069,396.43c-1.859-1.86-4.439-2.93-7.069-2.93s-5.21,1.069-7.07,2.93c-1.86,1.861-2.93,4.43-2.93,7.07 c0,2.63,1.069,5.21,2.93,7.069c1.86,1.861,4.44,2.931,7.07,2.931c2.64,0,5.21-1.07,7.069-2.931 c1.86-1.859,2.931-4.439,2.931-7.069S168.93,398.29,167.069,396.43z"/>
<path class="cwssvgi_15" d="M215.069,396.43c-1.859-1.86-4.439-2.93-7.069-2.93s-5.21,1.069-7.07,2.93c-1.86,1.861-2.93,4.44-2.93,7.07 s1.069,5.21,2.93,7.069c1.86,1.861,4.44,2.931,7.07,2.931s5.21-1.07,7.069-2.931c1.86-1.859,2.931-4.439,2.931-7.069 S216.93,398.29,215.069,396.43z"/>
<path class="cwssvgi_16" d="M263.069,396.43c-1.859-1.86-4.439-2.93-7.069-2.93s-5.21,1.069-7.07,2.93c-1.86,1.861-2.93,4.44-2.93,7.07 s1.069,5.21,2.93,7.069c1.86,1.861,4.44,2.931,7.07,2.931s5.21-1.07,7.069-2.931c1.86-1.859,2.931-4.439,2.931-7.069 S264.93,398.29,263.069,396.43z"/>
<path class="cwssvgi_17" d="M311.069,396.43c-1.859-1.861-4.439-2.93-7.069-2.93s-5.21,1.069-7.07,2.93c-1.86,1.861-2.93,4.44-2.93,7.07 s1.069,5.21,2.93,7.069c1.86,1.86,4.44,2.931,7.07,2.931s5.21-1.07,7.069-2.931c1.86-1.859,2.931-4.439,2.931-7.069 S312.93,398.29,311.069,396.43z"/>
<path class="cwssvgi_18" d="M359.069,396.43c-1.859-1.861-4.439-2.93-7.069-2.93s-5.21,1.069-7.07,2.93c-1.86,1.861-2.93,4.44-2.93,7.07 s1.069,5.21,2.93,7.069c1.86,1.86,4.44,2.931,7.07,2.931s5.21-1.07,7.069-2.931c1.86-1.859,2.931-4.439,2.931-7.069 S360.93,398.29,359.069,396.43z"/>
<path class="cwssvgi_19" d="M407.069,396.43c-1.859-1.861-4.439-2.93-7.069-2.93s-5.21,1.069-7.07,2.93c-1.86,1.861-2.93,4.44-2.93,7.07 s1.069,5.21,2.93,7.069c1.86,1.86,4.44,2.931,7.07,2.931s5.21-1.07,7.069-2.931c1.86-1.859,2.931-4.439,2.931-7.069 S408.93,398.29,407.069,396.43z"/>
<path class="cwssvgi_20" d="M455.069,396.43c-1.859-1.86-4.439-2.93-7.069-2.93s-5.21,1.069-7.07,2.93c-1.86,1.86-2.93,4.44-2.93,7.07 s1.069,5.21,2.93,7.069c1.86,1.86,4.44,2.931,7.07,2.931s5.21-1.07,7.069-2.931c1.86-1.859,2.931-4.439,2.931-7.069 S456.93,398.29,455.069,396.43z"/>
<path class="cwssvgi_21" d="M482.525,233.216h9.62c0.782,4.744,4.89,8.366,9.855,8.366c5.522,0,10-4.478,10-10v-16.731c0-5.522-4.478-10-10-10 c-4.964,0-9.073,3.622-9.855,8.365h-9.62v-1.495c0-14.615-11.89-26.505-26.505-26.505h-29.491v-76.765h54c5.522,0,10-4.478,10-10 V42.117c0-23.224-18.841-42.117-42-42.117H128.646c-23.159,0-42,18.841-42,42v143.216H56.505C41.89,185.216,30,197.105,30,211.721 v1.495H19.855c-0.782-4.743-4.891-8.365-9.855-8.365c-5.522,0-10,4.478-10,10v16.731c0,5.522,4.478,10,10,10 c4.965,0,9.073-3.623,9.855-8.366H30v1.495c0,4.82,1.3,9.34,3.558,13.238C13.659,258.145,0,278.854,0,302.707V474 c0,20.953,17.047,38,38,38h436c20.953,0,38-17.047,38-38V302.707c0-23.69-13.473-44.281-33.152-54.55 c2.333-3.945,3.677-8.541,3.677-13.447V233.216z M426.529,42.117c0-12.195,9.869-22.117,22-22.117c12.131,0,22,9.922,22,22.117 v46.334h-44V42.117z M426.529,205.216h29.491c3.587,0,6.505,2.918,6.505,6.505v22.99c0,3.587-2.918,6.505-6.505,6.505h-5.174 c-0.116-0.001-0.23-0.009-0.346-0.009h-23.971V205.216z M106.646,42c0-12.131,9.869-22,22-22h284.16 c-3.975,6.433-6.277,14.009-6.277,22.117v153.099v45.991H390H122h-15.354V42z M380,261.207v2c0,14.337-11.663,26-26,26H158 c-14.337,0-26-11.663-26-26v-2H380z M50,211.721c0-3.587,2.918-6.505,6.505-6.505h29.491v35.991H61.5 c-0.116,0-0.23,0.008-0.346,0.009h-4.649c-3.587,0-6.505-2.918-6.505-6.505V211.721z M492,302.707V474c0,9.925-8.075,18-18,18H38 c-9.925,0-18-8.075-18-18V302.707c0-22.767,18.43-41.303,41.153-41.491L112,261.207v2c0,25.364,20.636,46,46,46h196 c25.364,0,46-20.636,46-46v-2l50.847,0.009C473.57,261.404,492,279.94,492,302.707z"/>
<path class="cwssvgi_22" d="M229.353,49.207h-89.334c-5.522,0-10,4.478-10,10v89.333c0,5.523,4.477,10,10,10h89.334c5.522,0,10-4.478,10-10V59.207 C239.353,53.685,234.875,49.207,229.353,49.207z M219.353,138.54h-69.334V69.207h69.334V138.54z"/>
<path class="cwssvgi_23" d="M371,49.207h-97c-5.522,0-10,4.478-10,10c0,5.522,4.478,10,10,10h97c5.522,0,10-4.478,10-10 C381,53.685,376.522,49.207,371,49.207z"/>
<path class="cwssvgi_24" d="M371,93.207h-97c-5.522,0-10,4.478-10,10c0,5.522,4.478,10,10,10h97c5.522,0,10-4.478,10-10 C381,97.685,376.522,93.207,371,93.207z"/>
<path class="cwssvgi_25" d="M371,137.207h-97c-5.522,0-10,4.478-10,10c0,5.522,4.478,10,10,10h97c5.522,0,10-4.478,10-10 C381,141.685,376.522,137.207,371,137.207z"/>
<path class="cwssvgi_26" d="M371,181.207H181c-5.522,0-10,4.478-10,10c0,5.522,4.478,10,10,10h190c5.522,0,10-4.478,10-10 C381,185.685,376.522,181.207,371,181.207z"/>
<path class="cwssvgi_27" d="M147.09,184.14c-1.861-1.87-4.441-2.93-7.07-2.93c-2.63,0-5.21,1.06-7.069,2.93c-1.86,1.86-2.931,4.43-2.931,7.07 c0,2.63,1.07,5.21,2.931,7.07c1.859,1.859,4.439,2.93,7.069,2.93s5.21-1.07,7.07-2.93c1.86-1.87,2.93-4.44,2.93-7.07 S148.951,186,147.09,184.14z"/></svg>