<svg data-cwssvg-init  class="007-analytics-4.svg" version="1.1" xmlns="http://www.w3.org/2000/svg" xmlns:xlink="http://www.w3.org/1999/xlink" x="0px" y="0px" viewBox="0 0 512 512" style="enable-background:new 0 0 512 512;" xml:space="preserve">
<path class="cwssvgi_0" d="M448,254H343.167c-5.523,0-10,4.478-10,10c0,5.522,4.477,10,10,10H448c5.523,0,10-4.478,10-10 C458,258.478,453.523,254,448,254z"/>
<path class="cwssvgi_1" d="M448,206H343.167c-5.523,0-10,4.478-10,10c0,5.522,4.477,10,10,10H448c5.523,0,10-4.478,10-10 C458,210.478,453.523,206,448,206z"/>
<path class="cwssvgi_2" d="M407,302h-63.833c-5.523,0-10,4.478-10,10c0,5.522,4.477,10,10,10H407c5.523,0,10-4.478,10-10 C417,306.478,412.523,302,407,302z"/>
<path class="cwssvgi_3" d="M455.07,304.93c-1.86-1.86-4.44-2.93-7.07-2.93s-5.21,1.069-7.07,2.93c-1.86,1.86-2.93,4.44-2.93,7.07 s1.07,5.21,2.93,7.069c1.86,1.86,4.44,2.931,7.07,2.931s5.21-1.07,7.07-2.931c1.86-1.859,2.93-4.439,2.93-7.069 S456.93,306.79,455.07,304.93z"/>
<path class="cwssvgi_4" d="M509.071,81.507L430.492,2.929C428.617,1.054,426.074,0,423.421,0H206c-5.523,0-10,4.478-10,10v126H10 c-5.523,0-10,4.478-10,10v356c0,5.522,4.477,10,10,10h295.737c5.523,0,10-4.478,10-10V376H502c5.523,0,10-4.478,10-10V88.578 C512,85.926,510.946,83.383,509.071,81.507z M433.421,34.142l44.436,44.436h-44.436V34.142z M20,228h275.108l-46.576,46.575 c-3.908-1.663-8.204-2.584-12.711-2.584c-17.961,0-32.573,14.612-32.573,32.573c0,4.508,0.922,8.803,2.584,12.711l-33.01,33.011 c-4.454-2.29-9.496-3.591-14.839-3.591c-5.311,0-10.325,1.286-14.76,3.551l-34.642-34.641c2.385-4.525,3.742-9.672,3.742-15.133 c0-17.96-14.612-32.572-32.573-32.572s-32.573,14.612-32.573,32.572c0,4.663,0.992,9.095,2.764,13.11L20,343.523V228z M69.749,492 H20V371.77c0.135-0.121,0.274-0.235,0.404-0.365l42.857-42.858c2.033,1.199,4.205,2.183,6.488,2.922V492z M79.75,313.045 c-6.933,0-12.573-5.641-12.573-12.573S72.817,287.9,79.75,287.9s12.573,5.64,12.573,12.572 C92.323,307.404,86.683,313.045,79.75,313.045z M147.751,492h-58V331.468H89.75c1.571-0.508,3.089-1.134,4.546-1.864 l34.746,34.745c-2.315,4.474-3.632,9.544-3.632,14.919c0,14.386,9.379,26.616,22.341,30.917V492z M157.982,391.841 c-6.933,0-12.573-5.64-12.573-12.572c0-6.932,5.64-12.573,12.573-12.573s12.573,5.64,12.573,12.573 C170.555,386.202,164.915,391.841,157.982,391.841z M225.751,492h-58v-81.657h-0.001c13.203-4.159,22.805-16.516,22.805-31.074 c0-5.343-1.302-10.385-3.591-14.839l32.002-32.002c2.115,1.284,4.391,2.329,6.785,3.109V492z M235.82,317.136 c-6.933,0-12.573-5.64-12.573-12.572c0-6.932,5.64-12.573,12.573-12.573c2.642,0,5.093,0.823,7.119,2.221 c0.016,0.017,0.03,0.035,0.047,0.052c0.492,0.492,1.024,0.922,1.583,1.29c2.354,2.286,3.824,5.478,3.824,9.01 C248.393,311.497,242.753,317.136,235.82,317.136z M295.737,492H245.75V335.583c13.119-4.209,22.643-16.521,22.643-31.019 c0-6.165-1.722-11.936-4.71-16.856l32.054-32.053V492z M295.737,208.005c-0.037,0-0.073-0.005-0.109-0.005H20v-52h275.737V208.005 z M492,356H315.737V146c0-5.522-4.477-10-10-10H266V82h109.083c5.523,0,10-4.478,10-10c0-5.522-4.477-10-10-10H256 c-5.523,0-10,4.478-10,10v64h-30V20h197.421v68.578c0,5.522,4.477,10,10,10H438V158h-88.333c-5.523,0-10,4.478-10,10 c0,5.522,4.477,10,10,10H448c5.523,0,10-4.478,10-10V98.578h34V356z"/>
<path class="cwssvgi_5" d="M256.127,172h-75.142c-5.523,0-10,4.478-10,10c0,5.522,4.477,10,10,10h75.142c5.523,0,10-4.478,10-10 C266.127,176.478,261.65,172,256.127,172z"/>
<path class="cwssvgi_6" d="M110.82,174.93c-1.86-1.86-4.44-2.93-7.07-2.93s-5.21,1.069-7.07,2.93c-1.87,1.86-2.93,4.44-2.93,7.07 s1.06,5.21,2.93,7.069c1.86,1.861,4.44,2.931,7.07,2.931s5.21-1.07,7.07-2.931c1.86-1.859,2.93-4.439,2.93-7.069 S112.68,176.79,110.82,174.93z"/>
<path class="cwssvgi_7" d="M74.07,174.93C72.21,173.07,69.63,172,67,172s-5.21,1.069-7.07,2.93C58.07,176.79,57,179.37,57,182s1.07,5.21,2.93,7.069 C61.79,190.93,64.37,192,67,192s5.21-1.07,7.07-2.931C75.93,187.21,77,184.63,77,182S75.93,176.79,74.07,174.93z"/>
<path class="cwssvgi_8" d="M147.57,174.93c-1.87-1.86-4.44-2.93-7.07-2.93c-2.64,0-5.21,1.069-7.08,2.93c-1.86,1.86-2.92,4.44-2.92,7.07 s1.06,5.21,2.92,7.069c1.87,1.861,4.44,2.931,7.08,2.931c2.63,0,5.2-1.07,7.07-2.931c1.86-1.859,2.93-4.439,2.93-7.069 S149.43,176.79,147.57,174.93z"/></svg>