<svg data-cwssvg-init  class="008-training.svg" version="1.1" xmlns="http://www.w3.org/2000/svg" xmlns:xlink="http://www.w3.org/1999/xlink" x="0px" y="0px" viewBox="0 0 512.001 512.001" style="enable-background:new 0 0 512.001 512.001;" xml:space="preserve">
<path class="cwssvgi_0" d="M502,0H10C4.479,0,0,4.478,0,10v54c0,5.522,4.477,10,10,10h17.167v121.049c0,5.522,4.477,10,10,10s10-4.478,10-10V74 h417.667v16.076c-2.707-0.121-5.453,0.84-7.52,2.907l-25.52,25.52c-3.908-1.663-8.204-2.584-12.712-2.584 c-17.96,0-32.573,14.612-32.573,32.573c0,4.508,0.922,8.804,2.584,12.712l-33.011,33.011c-4.454-2.29-9.496-3.591-14.839-3.591 c-5.311,0-10.325,1.286-14.759,3.55l-34.642-34.642c2.385-4.525,3.742-9.672,3.742-15.133c0-17.96-14.612-32.572-32.573-32.572 s-32.573,14.612-32.573,32.572c0,4.663,0.992,9.095,2.764,13.11l-37.847,37.847c-3.905,3.905-3.905,10.237,0,14.143 c1.953,1.952,4.512,2.929,7.071,2.929c2.559,0,5.119-0.977,7.071-2.929l37.025-37.025c4.84,2.854,10.474,4.499,16.488,4.499 c5.226,0,10.164-1.244,14.545-3.441l34.746,34.746c-2.315,4.473-3.632,9.543-3.632,14.918c0,17.961,14.612,32.573,32.573,32.573 s32.573-14.612,32.573-32.573c0-5.343-1.302-10.385-3.592-14.839l32.002-32.001c4.921,2.988,10.691,4.71,16.856,4.71 c17.96,0,32.573-14.612,32.573-32.573c0-6.165-1.722-11.935-4.709-16.855l17.888-17.889V334h-35.822v-83.998 c0-5.522-4.477-10-10-10s-10,4.478-10,10V334h-58v-52.998c0-5.522-4.477-10-10-10s-10,4.478-10,10V334h-58V230.004 c0-5.522-4.477-10-10-10s-10,4.478-10,10V334h-11.933c-5.523,0-10,4.478-10,10c0,5.522,4.477,10,10,10h233.755 c5.523,0,10-4.478,10-10V74H502c5.523,0,10-4.478,10-10V10C512,4.478,507.523,0,502,0z M263.013,156.971 c-6.933,0-12.573-5.64-12.573-12.573c0-6.933,5.64-12.572,12.573-12.572s12.573,5.64,12.573,12.572 S269.945,156.971,263.013,156.971z M341.245,235.769c-6.933,0-12.573-5.641-12.573-12.573s5.64-12.572,12.573-12.572 s12.573,5.64,12.573,12.572S348.177,235.769,341.245,235.769z M419.083,161.064c-6.933,0-12.573-5.641-12.573-12.573 c0-6.932,5.64-12.573,12.573-12.573c2.641,0,5.092,0.823,7.118,2.22c0.017,0.017,0.031,0.036,0.048,0.053 c0.493,0.493,1.025,0.923,1.585,1.291c2.353,2.286,3.821,5.477,3.821,9.009C431.656,155.424,426.016,161.064,419.083,161.064z M492,54h-17.167H37.167H20V20h472V54z"/>
<path class="cwssvgi_1" d="M217.726,381.562l-0.25-0.079V295.2c0-46.577-37.894-84.471-84.471-84.471c-46.577,0-84.47,37.894-84.47,84.471v86.28 l-0.272,0.086C19.396,390.677,0,417.138,0,447.408V502c0,5.522,4.477,10,10,10h98.77c0.005,0,0.01,0.001,0.015,0.001 c0.005,0,0.009-0.001,0.014-0.001h48.426c0.005,0,0.01,0.001,0.014,0.001c0.005,0,0.01-0.001,0.015-0.001h98.722 c5.523,0,10-4.478,10-10v-54.599C265.979,417.136,246.586,390.677,217.726,381.562z M20,492v-44.592 c0-21.502,13.777-40.298,34.282-46.771l4.133-1.304l11.663,22.104l-8.622,8.622c-3.284,3.284-3.875,8.398-1.425,12.345L90.811,492 H20z M98.786,466.924l-17.581-28.329l8.23-8.229c3.101-3.101,3.819-7.86,1.773-11.739L77.8,393.215l20.986-6.624V466.924z M98.787,365.618l-30.252,9.549v-79.968c-0.001-35.549,28.921-64.47,64.47-64.47s64.47,28.922,64.47,64.471v79.968l-30.235-9.548 v-0.387c14.752-10.659,24.379-27.993,24.379-47.544v-27.267c0-3.522-1.853-6.785-4.878-8.589 c-3.024-1.804-6.776-1.885-9.875-0.209c-5.386,2.91-11.517,4.448-17.729,4.448c-11.615,0-22.36-5.288-29.479-14.508 c-1.894-2.453-4.817-3.889-7.915-3.889c-3.098,0-6.021,1.437-7.915,3.889c-7.119,9.22-17.864,14.508-29.479,14.508 c-5.523,0-10,4.478-10,10v21.616c0,19.576,9.653,36.93,24.438,47.586V365.618z M147.24,492h-28.454V374.577 c4.549,1.135,9.302,1.748,14.198,1.748c4.916,0,9.69-0.616,14.256-1.761V492z M154.045,350.054 c-1.282,0.433-2.444,1.118-3.434,1.997c-5.289,2.724-11.279,4.273-17.627,4.273c-6.294,0-12.236-1.523-17.492-4.204 c-1.041-0.944-2.276-1.676-3.646-2.116c-10.527-6.909-17.497-18.811-17.497-32.316v-12.48c10.177-1.781,19.601-6.27,27.395-13.031 c10.295,8.932,23.435,13.896,37.395,13.896c4.21,0,8.4-0.464,12.482-1.368v12.984C171.62,331.227,164.615,343.153,154.045,350.054 z M167.24,386.592l20.984,6.626l-13.406,25.407c-2.046,3.881-1.327,8.64,1.773,11.74l8.23,8.229l-17.581,28.329V386.592z M245.979,492h-70.762l30.78-49.596c2.449-3.946,1.859-9.061-1.425-12.345l-8.622-8.622l11.659-22.097l4.094,1.293 c20.501,6.475,34.276,25.269,34.276,46.768V492z"/>
<path class="cwssvgi_2" d="M426.081,202.93c-1.86-1.86-4.44-2.93-7.07-2.93s-5.21,1.069-7.07,2.93c-1.86,1.861-2.93,4.44-2.93,7.07 s1.07,5.21,2.93,7.069c1.86,1.861,4.44,2.931,7.07,2.931c2.64,0,5.21-1.07,7.07-2.931c1.86-1.859,2.93-4.439,2.93-7.069 S427.94,204.79,426.081,202.93z"/>
<path class="cwssvgi_3" d="M171.648,118H84.354c-5.523,0-10,4.478-10,10c0,5.522,4.477,10,10,10h87.294c5.523,0,10-4.478,10-10 C181.648,122.478,177.17,118,171.648,118z"/>
<path class="cwssvgi_4" d="M178.721,160.93c-1.86-1.86-4.44-2.93-7.07-2.93c-2.641,0-5.211,1.069-7.07,2.93c-1.87,1.86-2.93,4.44-2.93,7.07 s1.06,5.21,2.93,7.069c1.86,1.86,4.43,2.931,7.07,2.931c2.63,0,5.21-1.07,7.07-2.931c1.86-1.859,2.93-4.439,2.93-7.069 S180.581,162.79,178.721,160.93z"/>
<path class="cwssvgi_5" d="M133.005,158H84.354c-5.523,0-10,4.478-10,10c0,5.522,4.477,10,10,10h48.651c5.523,0,10-4.478,10-10 C143.005,162.478,138.529,158,133.005,158z"/></svg>