<svg data-cwssvg-init  class="010-share.svg" version="1.1" xmlns="http://www.w3.org/2000/svg" xmlns:xlink="http://www.w3.org/1999/xlink" x="0px" y="0px" viewBox="0 0 511.998 511.998" style="enable-background:new 0 0 511.998 511.998;" xml:space="preserve">
<path class="cwssvgi_0" d="M431.988,332.527v-35.717c18.343-4.499,31.997-21.072,31.997-40.784c0-19.712-13.654-36.286-31.997-40.784v-35.788 c44.929-4.994,79.986-43.193,79.986-89.433c0-49.621-40.37-89.992-89.992-89.992c-36.824,0-68.546,22.235-82.463,53.98h-44.544 c-4.499-18.343-21.073-31.997-40.783-31.997c-23.157,0-41.996,18.839-41.996,41.996s18.839,41.996,41.996,41.996 c19.711,0,36.285-13.654,40.783-31.997h38.443c-0.938,5.198-1.428,10.549-1.428,16.013c0,46.244,35.064,84.447,80,89.434v35.787 c-15.137,3.713-27.073,15.648-30.784,30.785h-83.278c-4.499-18.343-21.073-31.997-40.783-31.997 c-19.71,0-36.285,13.654-40.783,31.997h-36.935c-4.631-41.699-37.866-74.891-79.585-79.454V74.009h41.667 c5.522,0,9.999-4.478,9.999-9.999s-4.477-9.999-9.999-9.999H89.842c-5.522,0-9.999,4.478-9.999,9.999v102.599 C34.982,171.667,0,209.835,0,256.024c0,20.498,7.077,40.556,19.927,56.479c11.148,13.814,26.236,24.064,43.028,29.365 l-45.078,78.077c-1.787,3.094-1.787,6.905,0,9.999c1.786,3.094,5.086,5,8.659,5h27.479v67.025c0,5.521,4.477,9.999,9.999,9.999 h51.995c5.523,0,9.999-4.478,9.999-9.999v-67.025h27.511c3.573,0,6.873-1.906,8.659-5c1.787-3.094,1.787-6.905,0-9.999 l-45.076-78.075c33.921-10.624,58.401-40.333,62.31-75.846h36.946c3.608,14.71,14.982,26.394,29.512,30.448v38.38 c0,5.521,4.477,9.999,9.999,9.999c5.523,0,9.999-4.478,9.999-9.999v-37.75c15.739-3.34,28.241-15.52,32.057-31.079h83.278 c3.713,15.137,15.648,27.073,30.784,30.785v35.721c-44.924,5-79.974,43.196-79.974,89.431c0,5.464,0.491,10.815,1.428,16.014 h-36.791c-4.499-18.343-21.073-31.997-40.783-31.997c-23.157,0-41.996,18.839-41.996,41.996s18.839,41.996,41.996,41.996 c19.711,0,36.285-13.654,40.783-31.997h42.89c13.918,31.746,45.64,53.98,82.463,53.98c49.621,0,89.992-40.37,89.992-89.992 C512,375.714,476.93,337.509,431.988,332.527z M254.191,86.008c-12.13,0-21.998-9.868-21.998-21.998s9.868-21.998,21.998-21.998 s21.998,9.868,21.998,21.998S266.321,86.008,254.191,86.008z M106.011,491.971H74.014v-57.026h31.997V491.971z M136.201,414.947 H43.856l46.173-79.974L136.201,414.947z M136.96,308.006c-8.383,7.575-18.667,13.157-30.185,15.975l-8.087-14.006 c-1.786-3.094-5.087-5-8.659-5c-3.573,0-6.873,1.906-8.659,5l-8.095,14.022c-11.589-2.833-21.882-8.391-30.25-15.926v-1.453 c0-7.161,5.11-13.312,12.15-14.625l9.665-1.803c6.619,6.109,15.457,9.85,25.154,9.85s18.533-3.741,25.153-9.85l9.666,1.803 c7.039,1.313,12.149,7.463,12.149,14.625V308.006z M72.863,262.915v-17.652c0-9.444,7.684-17.127,17.128-17.127 c9.444,0,17.128,7.683,17.128,17.127v17.652c0,9.444-7.684,17.128-17.128,17.128C80.548,280.043,72.863,272.359,72.863,262.915z M151.971,288.666c-5.003-8.317-13.399-14.448-23.494-16.331l-2.46-0.459c0.715-2.872,1.1-5.872,1.1-8.962v-17.652 c0-20.471-16.654-37.126-37.127-37.126s-37.127,16.654-37.127,37.126v17.652c0,3.09,0.386,6.09,1.1,8.962l-2.459,0.459 c-10.107,1.885-18.51,8.026-23.511,16.357c-5.129-9.792-7.996-20.919-7.996-32.668c0-38.595,31.399-69.994,69.994-69.994 c38.594,0,69.994,31.398,69.994,69.994C159.985,267.758,157.109,278.881,151.971,288.666z M257.143,278.024 c-12.13,0-21.998-9.868-21.998-21.998c0-12.13,9.868-21.998,21.998-21.998s21.998,9.868,21.998,21.998 C279.141,268.156,269.273,278.024,257.143,278.024z M255.87,469.973c-12.13,0-21.998-9.868-21.998-21.998 s9.868-21.998,21.998-21.998s21.998,9.868,21.998,21.998S268,469.973,255.87,469.973z M360.069,122.617 c-5.149-9.742-8.08-20.83-8.08-32.594c0-38.594,31.399-69.994,69.994-69.994c38.594,0,69.994,31.399,69.994,69.994 c0,11.762-2.93,22.849-8.077,32.589c-5.01-8.261-13.377-14.347-23.428-16.223l-2.459-0.459c0.715-2.872,1.1-5.871,1.1-8.961 V79.317c0-20.472-16.654-37.127-37.127-37.127c-20.472,0-37.127,16.654-37.127,37.127v17.652c0,3.09,0.385,6.089,1.1,8.961 l-2.46,0.459C373.446,108.265,365.078,114.352,360.069,122.617z M439.114,79.317v17.652c0,9.444-7.684,17.128-17.128,17.128 c-9.444,0-17.128-7.684-17.128-17.128V79.317c0-9.444,7.684-17.128,17.128-17.128C431.429,62.188,439.114,69.873,439.114,79.317z M375.017,141.874v-1.201c0-7.161,5.11-13.312,12.149-14.626l9.666-1.802c6.619,6.109,15.457,9.85,25.154,9.85 c9.697,0,18.534-3.741,25.154-9.851l9.665,1.803c7.04,1.313,12.15,7.464,12.15,14.626v1.196 c-12.429,11.271-28.911,18.147-46.972,18.147C403.925,160.016,387.444,153.142,375.017,141.874z M399.991,256.026 c0-12.13,9.868-21.998,21.998-21.998c12.13,0,21.998,9.868,21.998,21.998c0,12.13-9.868,21.998-21.998,21.998 C409.859,278.024,399.991,268.156,399.991,256.026z M468.976,473.811c-12.429,11.269-28.91,18.144-46.969,18.144 s-34.539-6.875-46.968-18.144v-1.255c0-7.161,5.11-13.312,12.15-14.625l9.665-1.803c6.619,6.109,15.457,9.85,25.154,9.85 c9.697,0,18.533-3.741,25.153-9.85l9.666,1.803c7.039,1.313,12.149,7.463,12.149,14.625V473.811z M404.88,428.853v-17.651 c0-9.444,7.684-17.128,17.128-17.128s17.128,7.684,17.128,17.128v17.651c0,9.444-7.684,17.128-17.128,17.128 S404.88,438.297,404.88,428.853z M483.939,454.522c-5.009-8.276-13.382-14.374-23.445-16.25l-2.46-0.459 c0.715-2.872,1.1-5.872,1.1-8.962V411.2c0-20.472-16.654-37.127-37.127-37.127s-37.127,16.654-37.127,37.127v17.651 c0,3.09,0.386,6.09,1.1,8.962l-2.459,0.459c-10.063,1.876-18.437,7.973-23.446,16.25c-5.138-9.734-8.063-20.81-8.063-32.56 c0.002-38.594,31.401-69.994,69.996-69.994c38.594,0,69.994,31.399,69.994,69.994 C492.002,433.713,489.077,444.789,483.939,454.522z"/>
<path class="cwssvgi_1" d="M183.964,56.941c-1.87-1.86-4.44-2.93-7.079-2.93c-2.63,0-5.21,1.069-7.069,2.93c-1.86,1.86-2.93,4.44-2.93,7.069 c0,2.63,1.07,5.21,2.93,7.068c1.86,1.861,4.44,2.931,7.069,2.931c2.64,0,5.21-1.07,7.079-2.931c1.86-1.859,2.92-4.439,2.92-7.068 C186.884,61.38,185.824,58.801,183.964,56.941z"/>
<path class="cwssvgi_2" d="M262.937,362.894c-1.86-1.86-4.43-2.931-7.069-2.931c-2.63,0-5.21,1.07-7.069,2.931c-1.86,1.859-2.93,4.43-2.93,7.068 c0,2.63,1.07,5.21,2.93,7.069c1.86,1.86,4.44,2.93,7.069,2.93c2.64,0,5.21-1.07,7.069-2.93c1.87-1.86,2.93-4.44,2.93-7.069 S264.807,364.752,262.937,362.894z"/></svg>