<svg data-cwssvg-init  class="012-billboard.svg" version="1.1" xmlns="http://www.w3.org/2000/svg" xmlns:xlink="http://www.w3.org/1999/xlink" x="0px" y="0px" viewBox="0 0 512 512" style="enable-background:new 0 0 512 512;" xml:space="preserve">
<path class="cwssvgi_0" d="M502,40h-88V10c0-5.522-4.478-10-10-10h-71c-5.522,0-10,4.478-10,10v30h-57V10c0-5.522-4.478-10-10-10h-71 c-5.522,0-10,4.478-10,10v30h-57V10c0-5.522-4.478-10-10-10H37c-5.522,0-10,4.478-10,10v30H10C4.478,40,0,44.478,0,50v296 c0,5.522,4.478,10,10,10h44v30c0,5.522,4.478,10,10,10h129.554v106c0,5.522,4.478,10,10,10h96c5.522,0,10-4.478,10-10V396H448 c5.522,0,10-4.478,10-10v-30h44c5.522,0,10-4.478,10-10V50C512,44.478,507.522,40,502,40z M438.254,100v20h-68v-20H438.254z M343,20h51v20h-51V20z M290.127,100v20h-68v-20H290.127z M195,20h51v20h-51V20z M142,100v20H74v-20H142z M47,20h51v20H47V20z M289.554,492h-76v-96h76V492z M438,376H74v-20h364V376z M492,336H20V60h78v20H64c-5.522,0-10,4.478-10,10v40 c0,5.522,4.478,10,10,10h88c5.522,0,10-4.478,10-10V90c0-5.522-4.478-10-10-10h-34V60h128v20h-33.873c-5.522,0-10,4.478-10,10v40 c0,5.522,4.478,10,10,10h88c5.522,0,10-4.478,10-10V90c0-5.522-4.478-10-10-10H266V60h128v20h-33.746c-5.522,0-10,4.478-10,10v40 c0,5.522,4.478,10,10,10h88c5.522,0,10-4.478,10-10V90c0-5.522-4.478-10-10-10H414V60h78V336z"/>
<path class="cwssvgi_1" d="M184,168H64c-5.522,0-10,4.478-10,10v120c0,5.522,4.478,10,10,10h120c5.522,0,10-4.478,10-10V178 C194,172.478,189.522,168,184,168z M174,288H74V188h100V288z"/>
<path class="cwssvgi_2" d="M371.443,190.127H251.554c-5.522,0-10,4.478-10,10c0,5.522,4.477,10,10,10h119.889c5.522,0,10-4.478,10-10 C381.443,194.605,376.965,190.127,371.443,190.127z"/>
<path class="cwssvgi_3" d="M448,190.127h-30.866c-5.522,0-10,4.478-10,10c0,5.522,4.478,10,10,10H448c5.522,0,10-4.478,10-10 C458,194.605,453.522,190.127,448,190.127z"/>
<path class="cwssvgi_4" d="M311.498,246.127h-59.944c-5.522,0-10,4.478-10,10s4.478,10,10,10h59.944c5.522,0,10-4.478,10-10 C321.498,250.605,317.021,246.127,311.498,246.127z"/>
<path class="cwssvgi_5" d="M393.941,246.127h-22.499c-5.522,0-10,4.478-10,10s4.478,10,10,10h22.499c5.522,0,10-4.478,10-10 C403.941,250.605,399.464,246.127,393.941,246.127z"/>
<path class="cwssvgi_6" d="M455.069,249.06c-1.859-1.871-4.439-2.93-7.069-2.93s-5.21,1.06-7.07,2.93c-1.86,1.86-2.93,4.431-2.93,7.07 c0,2.63,1.069,5.21,2.93,7.07c1.86,1.859,4.44,2.93,7.07,2.93s5.21-1.07,7.069-2.93c1.86-1.87,2.931-4.44,2.931-7.07 S456.93,250.92,455.069,249.06z"/></svg>