<svg data-cwssvg-init  class="013-planning.svg" version="1.1" xmlns="http://www.w3.org/2000/svg" xmlns:xlink="http://www.w3.org/1999/xlink" x="0px" y="0px" viewBox="0 0 512 512" style="enable-background:new 0 0 512 512;" xml:space="preserve">
<path class="cwssvgi_0" d="M210.569,56.93C208.71,55.069,206.13,54,203.5,54s-5.21,1.069-7.07,2.93s-2.93,4.44-2.93,7.07s1.069,5.21,2.93,7.069 C198.29,72.93,200.87,74,203.5,74s5.21-1.07,7.069-2.931C212.43,69.21,213.5,66.63,213.5,64S212.43,58.79,210.569,56.93z"/>
<path class="cwssvgi_1" d="M502,292h-17V64c0-5.522-4.478-10-10-10H244.5c-5.522,0-10,4.478-10,10s4.478,10,10,10H465v218h-76 c-2.652,0-5.195,1.054-7.071,2.929l-55,55C325.054,351.805,324,354.348,324,357v81H136.442V308.056 c0-1.52-0.347-3.019-1.013-4.384l-25.892-53.078c-1.676-3.437-5.164-5.616-8.987-5.616s-7.312,2.18-8.987,5.615L65.67,303.671 c-0.666,1.366-1.013,2.865-1.013,4.385V438H47V166h108c5.522,0,10-4.478,10-10v-13.873h218.175l-68.001,27.258 c-1.255,0.503-2.395,1.255-3.351,2.211l-36.095,36.096l-19.096-19.096c-3.539-3.537-9.145-3.918-13.127-0.887l-42.065,32.007 l-14.066-3.859c-3.467-0.952-7.177,0.032-9.717,2.572l-14.49,14.49v-32.792c0-5.522-4.478-10-10-10c-5.522,0-10,4.478-10,10v56 c0,5.522,4.478,10,10,10H435c5.522,0,10-4.478,10-10v-124c0-5.522-4.478-10-10-10H165V20.021c0-5.522-4.478-10-10-10h-36V10 c0-5.522-4.478-10-10-10c-5.522,0-10,4.478-10,10v0.021H66V10c0-5.522-4.478-10-10-10S46,4.478,46,10v0.021H10 c-5.522,0-10,4.478-10,10V156c0,5.522,4.478,10,10,10h17v282c0,5.522,4.478,10,10,10h27.658v29.921 C64.658,501.198,75.46,512,88.737,512h23.626c13.277,0,24.079-10.802,24.079-24.079V458H324v44c0,5.522,4.478,10,10,10h168 c5.522,0,10-4.478,10-10V302C512,296.478,507.522,292,502,292z M425,246.127H178.244l9.445-9.445l13.228,3.629 c3.005,0.826,6.223,0.202,8.701-1.686l39.049-29.711l19.991,19.99c3.906,3.904,10.236,3.904,14.143,0l41.717-41.718L425,146.909 V246.127z M20,30.021h26.035c0.355,5.2,4.675,9.313,9.965,9.313s9.611-4.112,9.965-9.313h33.069 c0.355,5.2,4.675,9.313,9.965,9.313c5.29,0,9.611-4.112,9.965-9.313H145V54H20V30.021z M20,146V74h125v72H20z M100.551,277.786 l9.887,20.27H90.663L100.551,277.786z M116.442,487.921c0,2.249-1.83,4.079-4.079,4.079H88.737c-2.249,0-4.079-1.83-4.079-4.079 V475.67h31.784V487.921z M116.442,455.67H84.658V318.056h31.784V455.67z M379,326.143V347h-20.857L379,326.143z M492,492H344V367 h45c5.522,0,10-4.478,10-10v-45h93V492z"/>
<path class="cwssvgi_2" d="M463.667,347h-31.842c-5.522,0-10,4.478-10,10c0,5.522,4.478,10,10,10h31.842c5.522,0,10-4.478,10-10 C473.667,351.478,469.189,347,463.667,347z"/>
<path class="cwssvgi_3" d="M463.667,395H380.94c-5.522,0-10,4.478-10,10c0,5.522,4.478,10,10,10h82.727c5.522,0,10-4.478,10-10 C473.667,399.478,469.189,395,463.667,395z"/>
<path class="cwssvgi_4" d="M470.74,445.93c-1.86-1.861-4.44-2.93-7.07-2.93c-2.63,0-5.21,1.069-7.07,2.93c-1.87,1.86-2.93,4.44-2.93,7.07 s1.06,5.21,2.93,7.069c1.86,1.86,4.43,2.931,7.07,2.931c2.63,0,5.21-1.07,7.07-2.931c1.859-1.859,2.93-4.439,2.93-7.069 S472.6,447.79,470.74,445.93z"/>
<path class="cwssvgi_5" d="M418,443h-37.06c-5.522,0-10,4.478-10,10c0,5.522,4.478,10,10,10H418c5.522,0,10-4.478,10-10 C428,447.478,423.522,443,418,443z"/>
<path class="cwssvgi_6" d="M221,312h-48.25c-5.522,0-10,4.478-10,10c0,5.522,4.478,10,10,10H221c5.522,0,10-4.478,10-10 C231,316.478,226.522,312,221,312z"/>
<path class="cwssvgi_7" d="M190.5,362h-17.75c-5.522,0-10,4.478-10,10c0,5.522,4.478,10,10,10h17.75c5.522,0,10-4.478,10-10 C200.5,366.478,196.022,362,190.5,362z"/>
<path class="cwssvgi_8" d="M313.667,312h-43.674c-5.522,0-10,4.478-10,10c0,5.522,4.478,10,10,10h43.674c5.522,0,10-4.478,10-10 C323.667,316.478,319.189,312,313.667,312z"/>
<path class="cwssvgi_9" d="M293.484,362h-23.491c-5.522,0-10,4.478-10,10c0,5.522,4.478,10,10,10h23.491c5.522,0,10-4.478,10-10 C303.484,366.478,299.006,362,293.484,362z"/>
<path class="cwssvgi_10" d="M89.811,86.392c-3.737-1.546-8.039-0.692-10.898,2.168L64.93,102.543c-3.905,3.905-3.905,10.237,0,14.143 c2.989,2.987,7.397,3.689,11.055,2.104V128c0,5.522,4.478,10,10,10c5.522,0,10-4.478,10-10V95.631 C95.983,91.586,93.547,87.939,89.811,86.392z"/></svg>