<svg data-cwssvg-init  class="014-charts.svg" version="1.1" xmlns="http://www.w3.org/2000/svg" xmlns:xlink="http://www.w3.org/1999/xlink" x="0px" y="0px" viewBox="0 0 512 512" style="enable-background:new 0 0 512 512;" xml:space="preserve">
<path class="cwssvgi_0" d="M291.997,32h-72c-5.522,0-10,4.478-10,10s4.477,10,10,10h72c5.522,0,10-4.478,10-10S297.518,32,291.997,32z"/>
<path class="cwssvgi_1" d="M263.065,456.69c-1.859-1.86-4.44-2.93-7.069-2.93c-2.63,0-5.21,1.07-7.07,2.93c-1.86,1.86-2.93,4.431-2.93,7.07 c0,2.63,1.069,5.21,2.93,7.07c1.86,1.859,4.44,2.93,7.07,2.93c2.63,0,5.21-1.07,7.069-2.93c1.86-1.86,2.931-4.44,2.931-7.07 S264.927,458.55,263.065,456.69z"/>
<path class="cwssvgi_2" d="M486.245,321.196c-4.948,2.452-6.972,8.452-4.52,13.4c7.903,15.947,15.313,38.44,5.73,55.036 c-9.466,16.395-34.189,24.257-69.459,22.666V283.646c35.052-30.41,61.869-61.412,77.699-89.857 c18.01-32.362,21.149-60.518,9.08-81.422c-13.38-23.178-43.7-34.414-86.779-32.679V39.261C417.997,17.612,400.383,0,378.735,0 H133.256c-21.648,0-39.261,17.612-39.261,39.261v40.425c-43.424-1.788-73.364,9.444-86.779,32.681 C-9.216,140.829,2.709,182.41,40.798,229.45c7.161,8.844,15.11,17.715,23.744,26.55c-8.634,8.835-16.583,17.706-23.744,26.55 C2.709,329.59-9.216,371.171,7.217,399.634c2.126,3.68,4.725,7.12,7.724,10.224c1.962,2.029,4.575,3.05,7.191,3.05 c2.502,0,5.008-0.934,6.949-2.81c3.971-3.839,4.078-10.169,0.24-14.141c-1.865-1.93-3.476-4.058-4.784-6.324 c-11.827-20.484-0.234-54.928,31.806-94.498c6.776-8.368,14.301-16.77,22.481-25.147c4.885,4.587,9.941,9.155,15.172,13.693 v54.144c0,0.003,0,0.007,0,0.01v134.904c0,21.648,17.612,39.261,39.261,39.261h245.479c21.648,0,39.261-17.612,39.261-39.261 v-40.431c2.886,0.116,5.724,0.182,8.494,0.182c38.576,0,65.802-11.234,78.285-32.857c11.09-19.207,9.315-44.767-5.131-73.917 C497.193,320.768,491.193,318.742,486.245,321.196z M417.996,99.7c35.269-1.592,59.992,6.272,69.459,22.667 c16.068,27.829-11.628,80.496-69.459,134.386V99.7z M93.997,256.821c-0.294-0.274-0.579-0.548-0.871-0.821 c0.292-0.273,0.577-0.547,0.871-0.82V256.821z M93.997,208.205v20.113c-5.231,4.538-10.287,9.106-15.172,13.693 c-8.18-8.376-15.706-16.779-22.481-25.147c-32.041-39.569-43.634-74.012-31.806-94.497c9.403-16.288,33.976-24.257,69.459-22.665 V208.205z M113.996,39.261c0-10.62,8.64-19.261,19.26-19.261h245.479c10.62,0,19.261,8.641,19.261,19.261V64h-284V39.261z M380.141,84c-55.196,9.827-119.651,34.942-182.369,71.152c-30.31,17.499-58.576,36.647-83.775,56.602v-3.548V84H380.141z M113.995,237.536c27.369-22.949,59.165-45.08,93.777-65.063c63.104-36.433,127.719-61.225,181.943-69.811 c2.809-0.445,5.565-0.835,8.281-1.186v48.343c-0.806,0.444-1.567,1-2.25,1.683l-52.8,52.8h-45.314c-5.522,0-10,4.478-10,10 c0,5.522,4.478,10,10,10h25.314l-62.722,62.722l-52.712-52.712c-1.876-1.875-4.419-2.929-7.071-2.929 c-2.652,0-5.195,1.054-7.071,2.929l-57.562,57.562c-7.545-5.735-14.82-11.546-21.813-17.41V237.536z M121.553,306.13l-7.558,7.558 v-13.442C116.484,302.216,119.008,304.176,121.553,306.13z M397.997,472.739c0,10.62-8.641,19.261-19.261,19.261H133.256 c-10.62,0-19.261-8.641-19.261-19.261v-34.822h179.667c5.522,0,10-4.478,10-10c0-5.522-4.478-10-10-10H113.997v-75.944 l23.791-23.791c18.777,13.497,38.883,26.482,59.985,38.666c65.174,37.628,132.229,63.284,188.815,72.244 c3.881,0.615,7.68,1.138,11.409,1.585V472.739z M397.997,410.523c-2.716-0.35-5.472-0.74-8.281-1.185 c-54.225-8.586-118.84-33.378-181.943-69.811c-19.547-11.285-38.196-23.256-55.659-35.671l48.328-48.33l52.712,52.712 c3.906,3.904,10.236,3.904,14.143,0l68.397-68.397v22.523c0,5.522,4.478,10,10,10c5.522,0,10-4.478,10-10v-42.523l42.303-42.303 V410.523z"/>
<path class="cwssvgi_3" d="M471.72,283.2l-0.326-0.403c-3.478-4.289-9.776-4.946-14.065-1.467c-4.29,3.479-4.947,9.776-1.468,14.065l0.277,0.345 c1.976,2.455,4.873,3.73,7.797,3.73c2.2,0,4.416-0.723,6.264-2.209C474.502,293.798,475.182,287.503,471.72,283.2z"/>
<circle class="cwssvgi_4" cx="53.975" cy="419.32" r="10"/></svg>