<svg data-cwssvg-init  class="017-edit.svg" version="1.1" xmlns="http://www.w3.org/2000/svg" xmlns:xlink="http://www.w3.org/1999/xlink" x="0px" y="0px" viewBox="0 0 512 512" style="enable-background:new 0 0 512 512;" xml:space="preserve">
<path class="cwssvgi_0" d="M445,36H258.824c-5.523,0-10,4.478-10,10s4.477,10,10,10H445c5.523,0,10-4.478,10-10S450.523,36,445,36z"/>
<path class="cwssvgi_1" d="M157.43,38.93c-1.86-1.861-4.44-2.93-7.07-2.93s-5.21,1.069-7.07,2.93c-1.86,1.86-2.93,4.44-2.93,7.07 s1.07,5.21,2.93,7.069c1.86,1.86,4.43,2.931,7.07,2.931c2.63,0,5.21-1.07,7.07-2.931c1.86-1.859,2.93-4.439,2.93-7.069 S159.29,40.79,157.43,38.93z"/>
<path class="cwssvgi_2" d="M120.68,38.93c-1.86-1.861-4.44-2.93-7.07-2.93s-5.21,1.069-7.07,2.93c-1.86,1.86-2.93,4.44-2.93,7.07 s1.07,5.21,2.93,7.069c1.86,1.86,4.44,2.931,7.07,2.931s5.21-1.07,7.07-2.931c1.86-1.859,2.93-4.439,2.93-7.069 S122.54,40.79,120.68,38.93z"/>
<path class="cwssvgi_3" d="M194.18,38.93c-1.87-1.861-4.44-2.93-7.07-2.93c-2.64,0-5.21,1.069-7.08,2.93c-1.86,1.86-2.93,4.44-2.93,7.07 s1.07,5.21,2.93,7.069c1.86,1.86,4.44,2.931,7.08,2.931c2.63,0,5.21-1.07,7.07-2.931c1.86-1.859,2.93-4.439,2.93-7.069 S196.04,40.79,194.18,38.93z"/>
<path class="cwssvgi_4" d="M509.07,227.93c-1.86-1.86-4.44-2.93-7.07-2.93c-2.64,0-5.21,1.069-7.07,2.93c-1.86,1.86-2.93,4.44-2.93,7.07 s1.07,5.21,2.93,7.069c1.86,1.86,4.44,2.931,7.07,2.931s5.21-1.07,7.07-2.931c1.86-1.859,2.93-4.439,2.93-7.069 S510.93,229.79,509.07,227.93z"/>
<path class="cwssvgi_5" d="M502,0H64c-5.523,0-10,4.478-10,10v105c0,5.522,4.477,10,10,10s10-4.478,10-10V91.995c0.037,0,0.073,0.005,0.109,0.005 H492v100.833c0,5.522,4.477,10,10,10s10-4.478,10-10V10C512,4.478,507.523,0,502,0z M492,72H74.109 c-0.037,0-0.073,0.005-0.109,0.005V20h418V72z"/>
<path class="cwssvgi_6" d="M502,267.987c-5.523,0-10,4.478-10,10V492H74V337.986c0-5.522-4.477-10-10-10s-10,4.478-10,10V502c0,5.522,4.477,10,10,10 h438c5.523,0,10-4.478,10-10V277.987C512,272.465,507.523,267.987,502,267.987z"/>
<path class="cwssvgi_7" d="M237,194h-83v-40c0-5.522-4.477-10-10-10H10c-5.523,0-10,4.478-10,10v134c0,5.522,4.477,10,10,10h83v40 c0,5.522,4.477,10,10,10h134c5.523,0,10-4.478,10-10V204C247,198.478,242.523,194,237,194z M20,164h114v40v8.857l-10.429-10.429 c-3.905-3.904-10.237-3.904-14.143,0L84.5,227.357l-7.179-7.179c-3.905-3.904-10.237-3.904-14.143,0L20,263.357V164z M133.875,241.018v35.9c-0.313-0.435-0.664-0.849-1.054-1.239L98.642,241.5l17.858-17.857L133.875,241.018z M103,278H33.643 l36.607-36.607L106.857,278H103z M227,328H113v-30h31c5.523,0,10-4.478,10-10v-74h73V328z"/>
<path class="cwssvgi_8" d="M52.07,187.93C50.21,186.07,47.63,185,45,185s-5.21,1.069-7.07,2.93C36.07,189.79,35,192.37,35,195s1.07,5.21,2.93,7.069 C39.79,203.93,42.37,205,45,205s5.21-1.07,7.07-2.931C53.93,200.21,55,197.63,55,195S53.93,189.79,52.07,187.93z"/>
<path class="cwssvgi_9" d="M463,384H103c-5.523,0-10,4.478-10,10v67.938c0,5.522,4.477,10,10,10h360c5.523,0,10-4.478,10-10V394 C473,388.478,468.523,384,463,384z M453,451.938H113V404h340V451.938z"/>
<path class="cwssvgi_10" d="M452,194H287.767c-5.523,0-10,4.478-10,10c0,5.522,4.477,10,10,10H452c5.523,0,10-4.478,10-10 C462,198.478,457.523,194,452,194z"/>
<path class="cwssvgi_11" d="M452,238.667H287.767c-5.523,0-10,4.478-10,10c0,5.522,4.477,10,10,10H452c5.523,0,10-4.478,10-10 C462,243.145,457.523,238.667,452,238.667z"/>
<path class="cwssvgi_12" d="M452,283.333H287.767c-5.523,0-10,4.478-10,10c0,5.522,4.477,10,10,10H452c5.523,0,10-4.478,10-10 C462,287.811,457.523,283.333,452,283.333z"/>
<path class="cwssvgi_13" d="M355.005,328h-67.238c-5.523,0-10,4.478-10,10c0,5.522,4.477,10,10,10h67.238c5.523,0,10-4.478,10-10 C365.005,332.478,360.528,328,355.005,328z"/>
<path class="cwssvgi_14" d="M452,144H254.75c-5.523,0-10,4.478-10,10c0,5.522,4.477,10,10,10H452c5.523,0,10-4.478,10-10 C462,148.478,457.523,144,452,144z"/>
<path class="cwssvgi_15" d="M212.07,146.93c-1.86-1.86-4.44-2.93-7.07-2.93s-5.21,1.069-7.07,2.93c-1.86,1.86-2.93,4.44-2.93,7.07 s1.07,5.21,2.93,7.069c1.86,1.86,4.44,2.931,7.07,2.931s5.21-1.07,7.07-2.931c1.86-1.859,2.93-4.439,2.93-7.069 S213.93,148.79,212.07,146.93z"/></svg>