<svg data-cwssvg-init  class="022-digital-marketing-3.svg" version="1.1" xmlns="http://www.w3.org/2000/svg" xmlns:xlink="http://www.w3.org/1999/xlink" x="0px" y="0px" viewBox="0 0 512 512" style="enable-background:new 0 0 512 512;" xml:space="preserve">
<path class="cwssvgi_0" d="M191.006,32h-42c-5.522,0-10,4.477-10,10s4.478,10,10,10h42c5.522,0,10-4.477,10-10S196.529,32,191.006,32z"/>
<path class="cwssvgi_1" d="M177.076,456.69c-1.859-1.87-4.439-2.93-7.069-2.93s-5.21,1.06-7.07,2.93c-1.86,1.86-2.93,4.44-2.93,7.07 s1.069,5.21,2.93,7.07c1.86,1.859,4.44,2.93,7.07,2.93c2.63,0,5.21-1.07,7.069-2.93c1.86-1.86,2.931-4.44,2.931-7.07 S178.936,458.55,177.076,456.69z"/>
<path class="cwssvgi_2" d="M323.906,314.02c-1.859-1.86-4.429-2.93-7.069-2.93c-2.63,0-5.21,1.07-7.07,2.93c-1.86,1.86-2.93,4.431-2.93,7.07 c0,2.63,1.069,5.21,2.93,7.07c1.86,1.859,4.44,2.93,7.07,2.93c2.64,0,5.21-1.07,7.069-2.93c1.87-1.86,2.931-4.44,2.931-7.07 C326.836,318.45,325.776,315.88,323.906,314.02z"/>
<path class="cwssvgi_3" d="M371.523,221.763v-73.581c0-3.322-1.65-6.428-4.403-8.287c-2.753-1.859-6.249-2.23-9.332-0.989l-25.781,10.383v-19.3 c5.025-6.922,8-15.426,8-24.615c0-0.94-0.133-1.876-0.395-2.78l-7.769-26.842c0.101-0.57,0.163-1.154,0.163-1.753V39.261 C332.007,17.612,314.395,0,292.747,0H47.268C25.62,0,8.006,17.612,8.006,39.261V74c0,0.599,0.062,1.183,0.163,1.753l-7.769,26.842 c-0.262,0.904-0.395,1.84-0.395,2.78c0,9.189,2.975,17.692,8,24.615v342.75C8.006,494.388,25.62,512,47.268,512h245.479 c21.648,0,39.261-17.612,39.261-39.261v-90.608l25.785,10.371c1.203,0.484,2.47,0.723,3.73,0.723c1.968,0,3.922-0.581,5.6-1.714 c2.752-1.859,4.401-4.965,4.401-8.286v-73.582c20.054-4.562,35.072-22.524,35.072-43.939 C406.596,244.287,391.578,226.325,371.523,221.763z M319.969,106.663c-0.669,11.534-10.265,20.711-21.963,20.711 c-12.131,0-22-9.869-22-22V87.733h0.001h38.483L319.969,106.663z M28.008,39.261C28.006,28.64,36.647,20,47.268,20h245.479 c10.62,0,19.261,8.64,19.261,19.261V64h-284V39.261z M256.007,87.733v17.642c0,12.131-9.869,22-22,22c-12.131,0-22-9.869-22-22 V87.733H256.007z M192.006,87.733v17.642c0,12.131-9.869,22-22,22c-12.131,0-22-9.869-22-22V87.733H192.006z M128.006,87.733 v17.642c0,12.131-9.869,22-22,22c-12.131,0-22-9.869-22-22V87.733H128.006z M20.043,106.664l5.479-18.93h38.483v17.641h0.001 c0,12.131-9.869,22-22,22C30.308,127.375,20.712,118.198,20.043,106.664z M312.007,472.739c0,10.62-8.641,19.261-19.261,19.261 H47.268c-10.62,0-19.261-8.641-19.261-19.261V144.966c4.382,1.554,9.092,2.408,14,2.408c12.81,0,24.29-5.771,32-14.841 c7.71,9.07,19.19,14.841,32,14.841s24.29-5.771,32-14.841c7.71,9.07,19.19,14.841,32,14.841s24.29-5.771,32-14.841 c7.71,9.07,19.19,14.841,32,14.841s24.29-5.771,32-14.841c7.71,9.07,19.19,14.841,32,14.841c4.908,0,9.618-0.854,14-2.408v12.377 l-126.529,50.958h-55.501c-31.67,0-57.436,25.765-57.436,57.435c0,31.67,25.766,57.435,57.436,57.435h6.608v57.249 c0,5.522,4.478,10,10,10h40.824c5.522,0,10-4.478,10-10v-52.425l114.598,46.091v43.831h-242c-5.522,0-10,4.478-10,10 c0,5.522,4.478,10,10,10h242V472.739z M129.977,303.172c-20.642,0-37.436-16.793-37.436-37.435 c0-20.642,16.794-37.435,37.436-37.435h47.438l-0.005,74.87H129.977z M177.409,323.172v47.249h-20.824v-47.249H177.409z M351.525,368.424h-0.001l-154.108-61.982v-81.386l109.426-44.07v103.348c0,5.522,4.478,10,10,10c5.522,0,10-4.478,10-10V172.93 l24.683-9.941V368.424z M371.523,288.688v-45.97c8.861,3.87,15.072,12.714,15.072,22.986 C386.596,275.974,380.385,284.818,371.523,288.688z"/>
<path class="cwssvgi_4" d="M501.995,256h-31.99c-5.522,0-10,4.478-10,10c0,5.522,4.478,10,10,10h31.99c5.522,0,10-4.478,10-10 C511.995,260.478,507.516,256,501.995,256z"/>
<path class="cwssvgi_5" d="M442.076,258.93c-1.859-1.86-4.439-2.93-7.069-2.93c-2.64,0-5.21,1.069-7.07,2.93c-1.86,1.86-2.93,4.44-2.93,7.07 s1.069,5.21,2.93,7.069c1.86,1.86,4.44,2.931,7.07,2.931s5.21-1.07,7.069-2.931c1.86-1.859,2.931-4.439,2.931-7.069 S443.937,260.79,442.076,258.93z"/>
<path class="cwssvgi_6" d="M455.561,182.722c-3.906-3.905-10.236-3.905-14.143,0l-19.53,19.53c-3.905,3.905-3.905,10.237,0,14.143 c1.954,1.953,4.513,2.929,7.072,2.929c2.56,0,5.118-0.976,7.071-2.929l19.53-19.53 C459.466,192.96,459.466,186.628,455.561,182.722z"/>
<path class="cwssvgi_7" d="M456.295,334.2l-20.182-20.183c-3.906-3.904-10.236-3.904-14.143,0c-3.905,3.905-3.905,10.237,0,14.143l20.183,20.183 c1.953,1.952,4.512,2.929,7.071,2.929s5.118-0.977,7.071-2.929C460.2,344.438,460.2,338.106,456.295,334.2z"/></svg>