<svg data-cwssvg-init  class="027-data.svg" version="1.1" xmlns="http://www.w3.org/2000/svg" xmlns:xlink="http://www.w3.org/1999/xlink" x="0px" y="0px" viewBox="0 0 512 512" style="enable-background:new 0 0 512 512;" xml:space="preserve">
<path class="cwssvgi_0" d="M277.06,2.204c-8.221-1.457-16.655-2.195-25.066-2.195c-32.881,0-64.976,11.453-90.373,32.248 c-22.351,18.302-38.684,43.078-46.707,70.577c-6.021-1.167-12.162-1.758-18.352-1.765c-0.032,0-0.062,0-0.093,0 c-51.969,0-95.223,42.218-96.441,94.153c-0.615,26.22,9.125,50.979,27.427,69.715c18.307,18.741,42.816,29.063,69.011,29.063 h42.53c5.523,0,10-4.478,10-10c0-5.522-4.477-10-10-10h-42.53c-20.764,0-40.192-8.183-54.705-23.039 c-14.508-14.852-22.228-34.48-21.74-55.271c0.966-41.165,35.25-74.623,76.448-74.623c0.023,0,0.051,0,0.074,0 c6.755,0.007,13.428,0.89,19.878,2.628c0.053,0.014,0.105,0.031,0.158,0.045c0.765,0.208,1.526,0.431,2.284,0.663 c10.147,3.111,19.693,8.398,27.742,15.395c6.819,5.927,12.485,12.93,16.842,20.813c1.824,3.301,5.239,5.165,8.761,5.165 c1.636,0,3.295-0.402,4.828-1.25c4.834-2.671,6.587-8.755,3.916-13.589c-5.494-9.94-12.635-18.766-21.226-26.234 c-7.646-6.646-16.368-12.07-25.68-16.022c14.985-51.864,63.268-88.674,117.95-88.674c7.246,0,14.506,0.635,21.576,1.889 c5.443,0.964,10.628-2.664,11.592-8.102C286.125,8.358,282.498,3.168,277.06,2.204z"/>
<path class="cwssvgi_1" d="M255.993,200.129c-5.523,0-10,4.527-10,10.05c0,5.523,4.477,10,10,10c5.523,0,10-4.477,10-10v-0.099 C265.993,204.556,261.516,200.129,255.993,200.129z"/>
<path class="cwssvgi_2" d="M174.995,246c-5.523,0-10,4.477-10,10v98.509c0,8.317-5.47,15.376-13,17.781v-0.105c0-16.956-13.794-30.749-30.749-30.749 H30.749C13.794,341.436,0,355.229,0,372.185v68.998c0,16.956,13.794,30.749,30.749,30.749h90.498 c16.956,0,30.749-13.794,30.749-30.749v-48.428c18.643-2.75,32.999-18.85,32.999-38.246V256 C184.995,250.477,180.518,246,174.995,246z M131.996,441.183c0,5.928-4.822,10.75-10.75,10.75H30.749 c-5.928,0-10.75-4.822-10.75-10.75v-68.998c0-5.928,4.822-10.75,10.75-10.75h90.498c5.928,0,10.75,4.822,10.75,10.75V441.183z"/>
<path class="cwssvgi_3" d="M301.242,381.497h-35.249V249.164c0-5.523-4.477-10-10-10c-5.523,0-10,4.477-10,10v132.332h-35.249 c-16.956,0-30.749,13.794-30.749,30.749v68.998c0,16.956,13.794,30.749,30.749,30.749h90.497 c16.956,0,30.749-13.794,30.749-30.749v-68.998C331.991,395.29,318.197,381.497,301.242,381.497z M210.744,491.994 c-5.928,0-10.75-4.823-10.75-10.75v-7.107l26.374-26.374l44.231,44.231H210.744z M311.991,481.244 c0,5.927-4.822,10.75-10.75,10.75h-2.902c-0.439-0.786-0.984-1.528-1.652-2.196l-27.803-27.803l22.545-22.545l20.561,20.561 V481.244z M311.991,431.727l-13.491-13.491c-3.905-3.904-10.236-3.904-14.142,0l-29.616,29.615l-21.303-21.303 c-3.905-3.904-10.237-3.904-14.143,0l-19.302,19.304v-33.606c0-5.928,4.822-10.75,10.75-10.75h90.497 c5.928,0,10.75,4.822,10.75,10.75V431.727z"/>
<path class="cwssvgi_4" d="M481.251,341.436h-90.497c-16.956,0-30.749,13.794-30.749,30.749v0.208c-7.708-2.297-13.348-9.439-13.348-17.883V256 c0-5.523-4.477-10-10-10c-5.523,0-10,4.477-10,10v98.509c0,19.514,14.536,35.689,33.347,38.29v48.384 c0,16.956,13.794,30.749,30.749,30.749h90.497c16.956,0,30.749-13.794,30.749-30.749v-68.998 C512,355.229,498.206,341.436,481.251,341.436z M492.001,441.183c0,5.928-4.822,10.75-10.75,10.75h-90.497 c-5.928,0-10.75-4.822-10.75-10.75v-68.998c0-5.928,4.822-10.75,10.75-10.75h90.497c5.928,0,10.75,4.822,10.75,10.75V441.183z"/>
<path class="cwssvgi_5" d="M379.562,58.506c-30.74,0-55.748,25.008-55.748,55.748s25.009,55.748,55.748,55.748c30.74,0,55.748-25.008,55.748-55.748 S410.302,58.506,379.562,58.506z M379.562,150.004c-19.711,0-35.749-16.038-35.749-35.749s16.038-35.749,35.749-35.749 c19.711,0,35.749,16.038,35.749,35.749S399.273,150.004,379.562,150.004z"/>
<path class="cwssvgi_6" d="M468.023,155.762l5.087-12.275l13.122-3.269c4.456-1.11,7.583-5.112,7.583-9.704V97.996c0-4.592-3.127-8.593-7.583-9.704 l-13.122-3.269l-6.731-16.243l6.962-11.581c2.366-3.936,1.747-8.977-1.5-12.224L448.838,21.98 c-3.247-3.246-8.287-3.865-12.223-1.5l-11.582,6.961l-16.243-6.731L405.524,7.59c-1.11-4.456-5.112-7.583-9.704-7.583h-32.517 c-4.592,0-8.593,3.127-9.704,7.583l-3.269,13.122l-16.243,6.731l-11.582-6.961c-3.936-2.366-8.977-1.747-12.223,1.5 l-22.997,22.997c-3.245,3.246-3.863,8.287-1.497,12.222l6.962,11.582l-6.731,16.243l-13.122,3.269 c-4.456,1.11-7.583,5.112-7.583,9.704v32.517c0,4.592,3.127,8.594,7.583,9.704l13.122,3.269l6.731,16.243l-6.962,11.582 c-2.366,3.936-1.747,8.976,1.5,12.223l22.997,22.997c3.248,3.247,8.288,3.865,12.223,1.5l11.582-6.961l16.243,6.731l3.269,13.122 c1.11,4.456,5.112,7.583,9.704,7.583h32.517c4.592,0,8.593-3.127,9.704-7.583l3.269-13.122l16.243-6.731l11.582,6.961 c3.935,2.365,8.976,1.746,12.223-1.5l22.998-22.997c0.477-0.477,0.891-0.997,1.253-1.543 c12.216,10.132,19.451,25.585,18.863,41.974c-1.008,28.059-24.193,50.039-52.784,50.039h-61.105c-5.523,0-10,4.478-10,10 c0,5.522,4.477,10,10,10h61.105c18.814,0,36.701-7.112,50.362-20.025c13.776-13.022,21.734-30.528,22.408-49.295 C513.014,194.893,495.399,167.338,468.023,155.762z M456.56,131.172l-10.592,25.557c-1.214,2.93-0.966,6.262,0.667,8.981 l5.534,9.206l-11.947,11.947l-9.206-5.534c-2.719-1.633-6.051-1.881-8.98-0.667l-25.557,10.592 c-2.929,1.214-5.108,3.745-5.875,6.821l-2.598,10.43h-16.888l-2.598-10.43c-0.767-3.076-2.946-5.607-5.875-6.821l-25.557-10.592 c-2.93-1.214-6.262-0.966-8.98,0.667l-9.206,5.534l-11.947-11.947l5.534-9.206c1.634-2.718,1.881-6.05,0.667-8.98l-10.591-25.557 c-1.214-2.929-3.745-5.108-6.821-5.875l-10.431-2.598v-16.888l10.431-2.598c3.076-0.768,5.607-2.948,6.821-5.877l10.591-25.557 c1.214-2.93,0.966-6.262-0.667-8.98l-5.534-9.206l11.947-11.947l9.206,5.534c2.719,1.634,6.051,1.882,8.98,0.667l25.557-10.592 c2.929-1.214,5.108-3.745,5.875-6.821l2.598-10.43h16.888l2.598,10.43c0.767,3.076,2.946,5.607,5.875,6.821l25.557,10.592 c2.931,1.215,6.262,0.967,8.98-0.667l9.206-5.534l11.947,11.947l-5.534,9.206c-1.634,2.719-1.881,6.051-0.667,8.981l10.592,25.557 c1.214,2.929,3.745,5.108,6.821,5.875l10.43,2.598V122.7l-10.43,2.598C460.305,126.065,457.774,128.243,456.56,131.172z"/>
<path class="cwssvgi_7" d="M461.076,394.463l-25.336-16.241c-5.113-3.276-11.598-3.503-16.925-0.588c-5.328,2.914-8.637,8.495-8.637,14.567v32.478 c0,6.071,3.31,11.653,8.637,14.567c2.489,1.36,5.23,2.037,7.966,2.037c3.121,0,6.235-0.88,8.96-2.626l25.335-16.24 c4.786-3.067,7.644-8.293,7.644-13.979C468.72,402.756,465.862,397.531,461.076,394.463z M430.178,418.469v-20.055l15.645,10.028 L430.178,418.469z"/>
<path class="cwssvgi_8" d="M112.776,431.384l-24.138-57.178c-1.564-3.703-5.193-6.11-9.213-6.11c-4.02,0-7.649,2.407-9.213,6.11l-24.139,57.178 c-2.148,5.088,0.235,10.954,5.324,13.103c5.086,2.148,10.954-0.236,13.102-5.323l2.588-6.131h24.676l2.588,6.131 c1.612,3.818,5.317,6.113,9.217,6.113c1.296,0,2.615-0.254,3.885-0.79C112.54,442.339,114.924,436.472,112.776,431.384z M75.529,413.033l3.896-9.228l3.896,9.228H75.529z"/>
<path class="cwssvgi_9" d="M127.997,222.129H94.997c-5.523,0-10,4.477-10,10s4.477,10,10,10h32.999c5.523,0,10-4.477,10-10 S133.519,222.129,127.997,222.129z"/>
<path class="cwssvgi_10" d="M127.997,175.13H94.997c-5.523,0-10,4.477-10,10s4.477,10,10,10h32.999c5.523,0,10-4.477,10-10 S133.519,175.13,127.997,175.13z"/>
<path class="cwssvgi_11" d="M62.398,178.063c-1.86-1.87-4.43-2.93-7.07-2.93c-2.63,0-5.21,1.06-7.07,2.93c-1.86,1.86-2.93,4.44-2.93,7.07 s1.07,5.21,2.93,7.07c1.86,1.86,4.44,2.93,7.07,2.93c2.64,0,5.21-1.07,7.07-2.93c1.87-1.86,2.93-4.44,2.93-7.07 S64.268,179.923,62.398,178.063z"/></svg>