<svg data-cwssvg-init  class="028-mobile.svg" version="1.1" xmlns="http://www.w3.org/2000/svg" xmlns:xlink="http://www.w3.org/1999/xlink" x="0px" y="0px" viewBox="0 0 512 512" style="enable-background:new 0 0 512 512;" xml:space="preserve">
<path class="cwssvgi_0" d="M292,32h-72c-5.523,0-10,4.477-10,10s4.477,10,10,10h72c5.523,0,10-4.477,10-10S297.523,32,292,32z"/>
<path class="cwssvgi_1" d="M415.07,299.26c-1.86-1.86-4.44-2.93-7.07-2.93s-5.21,1.069-7.07,2.93c-1.86,1.86-2.93,4.44-2.93,7.07 c0,2.64,1.07,5.21,2.93,7.069c1.86,1.87,4.44,2.931,7.07,2.931s5.21-1.061,7.07-2.931c1.86-1.859,2.93-4.439,2.93-7.069 S416.93,301.12,415.07,299.26z"/>
<path class="cwssvgi_2" d="M408,334.333c-5.523,0-10,4.478-10,10v73.584H114V394h82.928C209.65,394,220,383.649,220,370.928V251.072 C220,238.35,209.65,228,196.928,228h-22.786l-23.214-23.215c-3.906-3.904-10.237-3.904-14.142,0L113.57,228H23.072 C10.35,228,0,238.35,0,251.072v119.856C0,383.649,10.35,394,23.072,394H94v78.739C94,494.388,111.612,512,133.261,512H378.74 c21.648,0,39.26-17.612,39.26-39.261V344.333C418,338.811,413.523,334.333,408,334.333z M23.072,374 c-1.694,0-3.072-1.378-3.072-3.072V251.072c0-1.694,1.378-3.072,3.072-3.072h94.641c2.652,0,5.196-1.054,7.071-2.929 l19.073-19.073l19.072,19.073c1.875,1.875,4.419,2.929,7.071,2.929h26.928c1.694,0,3.072,1.378,3.072,3.072v119.856 c0,1.694-1.378,3.072-3.072,3.072H23.072z M398,472.739c0,10.62-8.64,19.261-19.261,19.261H133.261 C122.64,492,114,483.359,114,472.739v-34.822h284V472.739z"/>
<path class="cwssvgi_3" d="M263.07,456.69c-1.86-1.86-4.44-2.93-7.07-2.93s-5.21,1.07-7.07,2.93s-2.93,4.44-2.93,7.07s1.07,5.21,2.93,7.07 c1.86,1.859,4.44,2.93,7.07,2.93s5.21-1.07,7.07-2.93s2.93-4.44,2.93-7.07C266,461.12,264.93,458.55,263.07,456.69z"/>
<path class="cwssvgi_4" d="M488.928,100H418V39.261C418,17.612,400.388,0,378.739,0H133.261C111.612,0,94,17.612,94,39.261v156.811 c0,5.523,4.477,10,10,10s10-4.477,10-10V84h284v16h-82.928C302.35,100,292,110.35,292,123.072v119.856 C292,255.65,302.35,266,315.072,266h18.643l23.214,23.215c1.953,1.952,4.512,2.929,7.071,2.929s5.119-0.977,7.071-2.929 L394.286,266h94.643C501.65,266,512,255.65,512,242.928V123.072C512,110.35,501.65,100,488.928,100z M114,64V39.261 C114,28.64,122.64,20,133.261,20H378.74C389.36,20,398,28.64,398,39.261V64H114z M492,242.928c0,1.694-1.378,3.072-3.072,3.072 h-98.785c-2.652,0-5.196,1.054-7.071,2.929L364,268.001l-19.072-19.072c-1.875-1.875-4.419-2.929-7.071-2.929h-22.785 c-1.694,0-3.072-1.378-3.072-3.072V123.072c0-1.694,1.378-3.072,3.072-3.072h173.856c1.694,0,3.072,1.378,3.072,3.072V242.928z"/>
<path class="cwssvgi_5" d="M441.921,170.052l-38.225-24.5c-6.146-3.938-13.943-4.212-20.35-0.708c-6.406,3.502-10.385,10.213-10.385,17.514v49.002 c0,7.301,3.979,14.012,10.385,17.515c2.992,1.636,6.288,2.449,9.577,2.449c3.752,0,7.497-1.058,10.772-3.157l38.225-24.501 c5.754-3.688,9.19-9.971,9.19-16.805C451.111,180.023,447.676,173.741,441.921,170.052z M392.962,211.286l0.003-48.857 l38.112,24.43L392.962,211.286z"/>
<path class="cwssvgi_6" d="M163.07,303.859c-1.86-1.859-4.44-2.92-7.07-2.92s-5.21,1.061-7.07,2.92c-1.86,1.86-2.93,4.44-2.93,7.08 c0,2.63,1.07,5.21,2.93,7.07s4.44,2.93,7.07,2.93s5.21-1.069,7.07-2.93c1.86-1.861,2.93-4.44,2.93-7.07 C166,308.299,164.93,305.729,163.07,303.859z"/>
<path class="cwssvgi_7" d="M114.07,303.859c-1.86-1.859-4.44-2.92-7.07-2.92s-5.21,1.061-7.07,2.92c-1.86,1.87-2.93,4.44-2.93,7.08 c0,2.63,1.07,5.21,2.93,7.07s4.44,2.93,7.07,2.93s5.21-1.069,7.07-2.93c1.86-1.861,2.93-4.44,2.93-7.07 C117,308.299,115.93,305.729,114.07,303.859z"/>
<path class="cwssvgi_8" d="M65.07,303.859c-1.86-1.859-4.44-2.92-7.07-2.92s-5.21,1.061-7.07,2.92c-1.86,1.87-2.93,4.44-2.93,7.08 c0,2.63,1.07,5.21,2.93,7.07s4.44,2.93,7.07,2.93s5.21-1.069,7.07-2.93c1.86-1.861,2.93-4.44,2.93-7.07 C68,308.299,66.93,305.729,65.07,303.859z"/>
<path class="cwssvgi_9" d="M263,118H140.961c-5.523,0-10,4.477-10,10s4.477,10,10,10H263c5.523,0,10-4.477,10-10S268.523,118,263,118z"/>
<path class="cwssvgi_10" d="M189.558,158h-48.597c-5.523,0-10,4.477-10,10s4.477,10,10,10h48.597c5.523,0,10-4.477,10-10S195.081,158,189.558,158z"/>
<path class="cwssvgi_11" d="M243.06,160.93c-1.86-1.86-4.44-2.93-7.07-2.93s-5.21,1.07-7.07,2.93c-1.86,1.86-2.93,4.44-2.93,7.07s1.07,5.21,2.93,7.07 s4.44,2.93,7.07,2.93s5.21-1.07,7.07-2.93c1.86-1.86,2.93-4.44,2.93-7.07S244.92,162.79,243.06,160.93z"/>
<path class="cwssvgi_12" d="M363.557,337.917H263.481c-5.523,0-10,4.478-10,10c0,5.522,4.477,10,10,10h100.076c5.523,0,10-4.478,10-10 C373.557,342.395,369.08,337.917,363.557,337.917z"/>
<path class="cwssvgi_13" d="M315.5,377.917h-52.019c-5.523,0-10,4.478-10,10c0,5.522,4.477,10,10,10H315.5c5.523,0,10-4.478,10-10 C325.5,382.395,321.023,377.917,315.5,377.917z"/></svg>