<svg data-cwssvg-init  class="030-pay-per-click-1.svg" version="1.1" xmlns="http://www.w3.org/2000/svg" xmlns:xlink="http://www.w3.org/1999/xlink" x="0px" y="0px" viewBox="0 0 512 512" style="enable-background:new 0 0 512 512;" xml:space="preserve">
<path class="cwssvgi_0" d="M273.738,238.262c-2.528-2.527-6.21-3.515-9.66-2.588L64.98,289.022c-3.451,0.925-6.146,3.62-7.071,7.071 c-0.925,3.45,0.062,7.133,2.588,9.659l30.006,30.006L3.131,423.132c-1.875,1.876-2.929,4.419-2.929,7.071 c0,2.652,1.054,5.195,2.929,7.071l71.595,71.594c1.953,1.952,4.512,2.929,7.071,2.929s5.119-0.977,7.071-2.929l87.372-87.372 l30.007,30.007c1.9,1.899,4.454,2.929,7.072,2.929c0.863,0,1.732-0.111,2.588-0.341c3.451-0.925,6.146-3.62,7.071-7.071 l53.348-199.098C277.251,244.471,276.264,240.789,273.738,238.262z M81.797,487.655L66.252,472.11l24.495-24.495 c3.905-3.905,3.905-10.237,0-14.143c-3.905-3.904-10.237-3.904-14.143,0L52.11,457.968l-27.765-27.765l80.301-80.302 l57.452,57.452L81.797,487.655z M208.142,425.113l-24.821-24.821c-0.003-0.003-0.006-0.007-0.009-0.01 c-0.003-0.003-0.007-0.006-0.01-0.009l-71.57-71.57c-0.005-0.005-0.009-0.01-0.014-0.015s-0.01-0.009-0.015-0.014l-24.815-24.815 l165.637-44.383L208.142,425.113z"/>
<path class="cwssvgi_1" d="M354.546,157.453c-3.905-3.906-10.237-3.905-14.143,0L298.5,199.358c-3.905,3.905-3.905,10.237,0,14.143 c1.952,1.952,4.512,2.928,7.071,2.928c2.559,0,5.119-0.976,7.071-2.929l41.904-41.904 C358.451,167.691,358.451,161.359,354.546,157.453z"/>
<path class="cwssvgi_2" d="M347.695,287.639l-35.053-35.053c-3.905-3.905-10.237-3.905-14.143,0c-3.905,3.905-3.905,10.237,0,14.143l35.053,35.053 c1.953,1.952,4.512,2.929,7.071,2.929s5.119-0.977,7.071-2.929C351.6,297.876,351.6,291.544,347.695,287.639z"/>
<path class="cwssvgi_3" d="M377.36,317.3c-1.86-1.86-4.44-2.92-7.07-2.92c-2.63,0-5.21,1.059-7.07,2.92c-1.86,1.86-2.93,4.44-2.93,7.08 c0,2.63,1.07,5.21,2.93,7.07c1.86,1.859,4.44,2.93,7.07,2.93s5.21-1.07,7.07-2.93c1.86-1.87,2.93-4.44,2.93-7.07 C380.29,321.74,379.22,319.17,377.36,317.3z"/>
<path class="cwssvgi_4" d="M259.414,199.358l-41.904-41.904c-3.905-3.905-10.237-3.905-14.142,0c-3.905,3.905-3.905,10.237,0,14.142l41.904,41.904 c1.953,1.953,4.512,2.929,7.071,2.929s5.119-0.977,7.071-2.929C263.319,209.595,263.319,203.263,259.414,199.358z"/>
<path class="cwssvgi_5" d="M375.855,223.043h-18.666c-5.523,0-10,4.477-10,10c0,5.523,4.477,10,10,10h18.666c5.523,0,10-4.477,10-10 C385.855,227.52,381.378,223.043,375.855,223.043z"/>
<path class="cwssvgi_6" d="M278.957,126.145c-5.523,0-10,4.477-10,10v18.666c0,5.523,4.477,10,10,10s10-4.477,10-10v-18.666 C288.957,130.622,284.48,126.145,278.957,126.145z"/>
<path class="cwssvgi_7" d="M428,73.618c-6.617,0-12-4.471-12-9.966c0-5.496,5.383-9.966,12-9.966s12,4.471,12,9.966c0,5.523,4.477,10,10,10 s10-4.477,10-10c0-13.257-9.244-24.523-22.01-28.463c-0.103-5.434-4.532-9.809-9.99-9.809c-5.458,0-9.888,4.375-9.99,9.809 C405.244,39.129,396,50.395,396,63.652c0,16.523,14.355,29.966,32,29.966c6.617,0,12,4.471,12,9.966s-5.383,9.966-12,9.966 s-12-4.471-12-9.966c0-5.523-4.477-10-10-10s-10,4.477-10,10c0,13.261,9.25,24.53,22.022,28.466 c0.227,5.322,4.601,9.57,9.978,9.57c5.377,0,9.751-4.248,9.978-9.57C450.75,128.114,460,116.845,460,103.584 C460,87.061,445.645,73.618,428,73.618z"/>
<path class="cwssvgi_8" d="M428,0c-46.318,0-84,37.682-84,84s37.682,84,84,84s84-37.682,84-84S474.318,0,428,0z M428,148c-35.29,0-64-28.71-64-64 s28.71-64,64-64c35.29,0,64,28.71,64,64S463.29,148,428,148z"/>
<path class="cwssvgi_9" d="M84,73.618c-6.617,0-12-4.471-12-9.966c0-5.496,5.383-9.966,12-9.966s12,4.471,12,9.966c0,5.523,4.477,10,10,10 s10-4.477,10-10c0-13.257-9.244-24.523-22.01-28.463c-0.103-5.434-4.532-9.809-9.99-9.809s-9.888,4.375-9.99,9.809 C61.244,39.129,52,50.395,52,63.652c0,16.523,14.355,29.966,32,29.966c6.617,0,12,4.471,12,9.966s-5.383,9.966-12,9.966 s-12-4.471-12-9.966c0-5.523-4.477-10-10-10s-10,4.477-10,10c0,13.261,9.25,24.53,22.022,28.466 c0.227,5.322,4.601,9.57,9.978,9.57s9.751-4.248,9.978-9.57C106.75,128.114,116,116.845,116,103.584 C116,87.061,101.645,73.618,84,73.618z"/>
<path class="cwssvgi_10" d="M84,0C37.682,0,0,37.682,0,84s37.682,84,84,84s84-37.682,84-84S130.318,0,84,0z M84,148c-35.29,0-64-28.71-64-64 s28.71-64,64-64s64,28.71,64,64S119.29,148,84,148z"/>
<path class="cwssvgi_11" d="M428,417.618c-6.617,0-12-4.471-12-9.967c0-5.495,5.383-9.965,12-9.965s12,4.471,12,9.966c0,5.522,4.477,10,10,10 s10-4.478,10-10c0-13.257-9.244-24.523-22.01-28.462c-0.103-5.433-4.532-9.809-9.99-9.809c-5.458,0-9.888,4.376-9.99,9.809 c-12.766,3.939-22.01,15.206-22.01,28.462c0,16.523,14.355,29.967,32,29.967c6.617,0,12,4.471,12,9.966s-5.383,9.966-12,9.966 s-12-4.471-12-9.966c0-5.522-4.477-10-10-10s-10,4.478-10,10c0,13.261,9.25,24.53,22.022,28.466 c0.227,5.321,4.601,9.57,9.978,9.57c5.377,0,9.751-4.248,9.978-9.57C450.75,472.114,460,460.845,460,447.584 C460,431.061,445.645,417.618,428,417.618z"/>
<path class="cwssvgi_12" d="M428,344c-46.318,0-84,37.683-84,84s37.682,84,84,84s84-37.683,84-84S474.318,344,428,344z M428,492 c-35.29,0-64-28.71-64-64c0-35.29,28.71-64,64-64c35.29,0,64,28.71,64,64C492,463.29,463.29,492,428,492z"/>
<path class="cwssvgi_13" d="M115.29,408.93c-1.86-1.86-4.44-2.93-7.07-2.93c-2.63,0-5.21,1.069-7.07,2.93c-1.86,1.86-2.93,4.44-2.93,7.07 s1.07,5.21,2.93,7.069c1.86,1.86,4.44,2.931,7.07,2.931c2.63,0,5.21-1.07,7.07-2.931c1.86-1.859,2.93-4.439,2.93-7.069 S117.15,410.79,115.29,408.93z"/></svg>