<svg data-cwssvg-init  class="031-target.svg" version="1.1" xmlns="http://www.w3.org/2000/svg" xmlns:xlink="http://www.w3.org/1999/xlink" x="0px" y="0px" viewBox="0 0 511.997 511.997" style="enable-background:new 0 0 511.997 511.997;" xml:space="preserve">
<path class="cwssvgi_0" d="M303.985,0.027c-106.913,0-195.23,81.078-206.732,184.974l-15.025-15.025c-1.876-1.875-4.418-2.929-7.07-2.929H10 c-4.044,0-7.69,2.437-9.238,6.172s-0.691,8.037,2.168,10.896l23.926,23.926L2.929,231.967c-2.859,2.86-3.715,7.161-2.168,10.896 c1.548,3.736,5.193,6.172,9.238,6.172h65.159c2.652,0,5.194-1.054,7.07-2.929l15.024-15.024 c3.286,29.612,12.875,58.22,28.226,83.811c2.841,4.735,8.98,6.272,13.717,3.432c4.735-2.841,6.271-8.982,3.432-13.718 c-15.731-26.226-24.746-55.967-26.367-86.568h36.047c1.747,26.871,10.504,52.622,25.625,75.006 c3.092,4.575,9.307,5.778,13.882,2.688c4.576-3.091,5.779-9.307,2.688-13.882c-12.88-19.065-20.454-40.949-22.166-63.811h36.139 c3.915,37.672,29.698,68.938,64.396,80.855L97.72,343.995H57.06c-13.261,0-24.302,9.65-26.491,22.294 c-17.526,4.314-30.568,20.158-30.568,38.997c0,18.879,13.097,34.749,30.681,39.023c1.974,9.977,9.481,17.981,19.18,20.68 l15.993,40.642c1.505,3.823,5.195,6.337,9.305,6.337h41.927c3.309,0,6.401-1.636,8.264-4.37c1.862-2.734,2.252-6.211,1.041-9.29 l-10.907-27.711l157.962,41.052c0.83,0.215,1.676,0.321,2.516,0.321c2.19,0,4.347-0.72,6.116-2.089 c2.449-1.894,3.882-4.814,3.882-7.91V308.424c0-2.437-0.899-4.756-2.472-6.56c6.607,1.442,13.464,2.21,20.497,2.21 c52.951,0,96.031-43.079,96.031-96.031c0-52.952-43.08-96.031-96.031-96.031c-49.576,0-90.495,37.763-95.512,86.033h-36.138 c5.127-68.147,62.214-122.027,131.649-122.027c72.799,0,132.026,59.226,132.026,132.026c0,35.266-13.733,68.42-38.669,93.356 c-3.904,3.904-3.904,10.236,0,14.141c1.953,1.953,4.511,2.929,7.07,2.929s5.117-0.976,7.07-2.929 c28.713-28.713,44.526-66.889,44.526-107.496c0-83.826-68.197-152.023-152.023-152.023c-80.465,0-146.519,62.843-151.686,142.024 h-36.066c5.215-99.044,87.431-178.019,187.751-178.019C407.655,20.026,492,104.371,492,208.044 c0,42.118-13.608,81.926-39.353,115.122c-3.385,4.363-2.59,10.644,1.773,14.028c1.823,1.414,3.979,2.099,6.121,2.099 c2.984,0,5.937-1.331,7.908-3.871c28.489-36.735,43.549-80.78,43.549-127.377C512,93.341,418.686,0.027,303.985,0.027z M71.016,229.039H34.138l13.927-13.927c3.904-3.904,3.904-10.236,0-14.141l-13.927-13.927h36.878l20.997,20.997L71.016,229.039z M30.168,422.778c-6.066-3.481-10.17-10.01-10.17-17.491c0-7.481,4.103-14.01,10.17-17.491V422.778z M57.06,445.981 c-3.802,0-6.895-3.094-6.895-6.895v-68.198h-0.001c0-3.802,3.094-6.895,6.895-6.895h31.928v81.988H57.06z M81.968,491.974 L71.74,465.977h20.436l10.229,25.996H81.968z M265.963,489.043l-156.977-40.796v-86.503l112.997-29.096v77.671 c0,5.522,4.477,9.999,9.999,9.999c5.521,0,9.999-4.476,9.999-9.999v-82.82l23.984-6.176V489.043z M303.985,198.043h-17.344 c3.469-5.993,9.937-10.044,17.344-10.044c11.051,0,20.042,8.991,20.042,20.042c0,11.051-8.991,20.042-20.042,20.042 c-7.408,0-13.875-4.05-17.344-10.044h17.344c5.521,0,9.999-4.476,9.999-9.999C313.984,202.519,309.507,198.043,303.985,198.043z M303.985,248.081c22.078,0,40.039-17.961,40.039-40.039s-17.961-40.039-40.039-40.039c-18.626,0-34.323,12.785-38.775,30.041 h-36.581c4.913-37.215,36.822-66.035,75.356-66.035c41.926,0,76.034,34.109,76.034,76.034c0,41.925-34.108,76.034-76.034,76.034 c-38.534,0-70.443-28.822-75.356-66.035h36.581C269.662,235.296,285.358,248.081,303.985,248.081z"/>
<path class="cwssvgi_1" d="M446.045,346.342c-3.749-4.033-10.069-4.259-14.114-0.528c-0.047,0.043-0.137,0.127-0.183,0.171 c-3.986,3.82-4.121,10.15-0.301,14.137c1.964,2.049,4.589,3.081,7.22,3.081c2.458,0,4.918-0.9,6.846-2.712 c0.021-0.02,0.049-0.046,0.063-0.059C449.593,356.665,449.795,350.373,446.045,346.342z"/>
<path class="cwssvgi_2" d="M383.364,325.64c-3.905-3.905-10.235-3.905-14.14-0.001c-3.904,3.904-3.904,10.236,0,14.141 c36.072,36.072,36.072,94.765,0,130.838c-3.904,3.904-3.904,10.236,0,14.14c1.953,1.953,4.511,2.929,7.07,2.929 s5.117-0.977,7.07-2.929C427.233,440.889,427.233,369.508,383.364,325.64z"/>
<path class="cwssvgi_3" d="M357.886,351.118c-3.904-3.904-10.234-3.904-14.141,0c-3.904,3.904-3.904,10.236,0,14.14 c22.023,22.024,22.023,57.859,0,79.881c-3.904,3.904-3.904,10.236,0,14.141c1.953,1.952,4.511,2.929,7.07,2.929 s5.117-0.977,7.07-2.929C387.705,429.459,387.705,380.938,357.886,351.118z"/>
<path class="cwssvgi_4" d="M331.023,377.98c-3.905-3.903-10.234-3.903-14.141,0c-3.904,3.904-3.904,10.236,0,14.141 c7.211,7.211,7.211,18.944,0,26.155c-3.904,3.904-3.904,10.235,0,14.141c1.953,1.953,4.511,2.929,7.07,2.929 s5.117-0.976,7.07-2.929C346.031,417.408,346.031,392.988,331.023,377.98z"/>
<path class="cwssvgi_5" d="M239.046,440.911c-1.86-1.86-4.439-2.93-7.069-2.93c-2.63,0-5.209,1.07-7.069,2.93c-1.859,1.86-2.93,4.439-2.93,7.069 s1.07,5.209,2.93,7.069c1.86,1.86,4.439,2.93,7.069,2.93c2.63,0,5.209-1.07,7.069-2.93c1.87-1.86,2.93-4.439,2.93-7.069 S240.915,442.771,239.046,440.911z"/></svg>