<svg data-cwssvg-init  class="032-idea.svg" version="1.1" xmlns="http://www.w3.org/2000/svg" xmlns:xlink="http://www.w3.org/1999/xlink" x="0px" y="0px" viewBox="0 0 512 512" style="enable-background:new 0 0 512 512;" xml:space="preserve">
<path class="cwssvgi_0" d="M334.747,214.446c-0.015,0-0.03,0.001-0.045,0.001c-3.851-16.223-18.451-28.332-35.835-28.332 c-20.312,0-36.836,16.524-36.836,36.836v87.973c0,16.059,13.064,29.124,29.123,29.124c10.521,0,20.139-5.689,25.28-14.699 c17.265-0.481,31.164-14.665,31.164-32.044c0-2.338-0.263-4.661-0.765-6.925c7.811-4.286,13.119-12.589,13.119-22.11v-24.62 C359.951,225.752,348.645,214.446,334.747,214.446z M339.952,264.271c0,2.869-2.335,5.204-5.204,5.204 c-1.947,0-3.203-1.018-3.778-1.625c-3.797-4.007-10.127-4.179-14.137-0.379c-4.009,3.799-4.179,10.128-0.379,14.137 c2.765,2.917,6.188,5.101,9.927,6.421c0.796,1.628,1.218,3.413,1.218,5.278c-0.001,6.652-5.414,12.065-12.068,12.065 c-3.498,0-6.822-1.517-9.119-4.163c-3.621-4.171-9.937-4.616-14.106-0.996c-4.171,3.621-4.616,9.937-0.995,14.107 c1.405,1.618,2.96,3.069,4.627,4.357c-1.412,0.871-3.056,1.371-4.783,1.371c-5.03,0-9.123-4.093-9.123-9.124v-87.973 c0-9.283,7.553-16.836,16.836-16.836c9.284,0,16.837,7.553,16.837,16.836v0.216c-3.833,4.423-6.161,10.184-6.161,16.483 c0,5.523,4.478,10,10,10c5.522,0,10-4.477,10-10c0-2.869,2.335-5.204,5.204-5.204s5.204,2.334,5.204,5.204V264.271z"/>
<path class="cwssvgi_1" d="M213.122,186.116c-17.384,0-31.984,12.108-35.834,28.332c-0.016,0-0.03-0.001-0.046-0.001 c-13.897,0-25.204,11.306-25.204,25.204v24.621c0,9.521,5.308,17.824,13.119,22.11c-0.502,2.264-0.765,4.587-0.765,6.925 c0,17.379,13.899,31.562,31.164,32.044c5.142,9.01,14.76,14.699,25.28,14.699c16.059,0,29.123-13.065,29.123-29.124v-87.973 C249.958,202.64,233.434,186.116,213.122,186.116z M229.96,310.925h-0.002c0,5.031-4.093,9.124-9.123,9.124 c-1.727,0-3.371-0.5-4.783-1.371c1.667-1.287,3.222-2.738,4.627-4.357c3.621-4.17,3.176-10.486-0.995-14.107 c-4.169-3.62-10.487-3.176-14.106,0.996c-2.297,2.646-5.621,4.163-9.119,4.163c-6.653,0-12.066-5.413-12.066-12.066 c0-1.865,0.422-3.65,1.218-5.278c3.739-1.319,7.162-3.504,9.927-6.421c3.8-4.009,3.63-10.338-0.379-14.137 c-4.008-3.799-10.338-3.628-14.137,0.379c-0.575,0.607-1.831,1.625-3.778,1.625c-2.869,0-5.204-2.334-5.204-5.204V239.65 c0-2.869,2.335-5.204,5.204-5.204c2.869,0,5.204,2.334,5.204,5.204c0,5.523,4.478,10,10,10c5.522,0,10-4.477,10-10 c0-6.298-2.327-12.059-6.16-16.481v-0.217c0-9.283,7.553-16.836,16.836-16.836c9.283,0,16.836,7.553,16.836,16.836V310.925z"/>
<path class="cwssvgi_2" d="M280.019,454.93c-1.859-1.86-4.43-2.93-7.069-2.93c-2.631,0-5.21,1.07-7.07,2.93c-1.86,1.86-2.93,4.44-2.93,7.07 s1.069,5.21,2.93,7.07c1.861,1.86,4.439,2.93,7.07,2.93c2.64,0,5.21-1.07,7.069-2.93c1.86-1.86,2.931-4.44,2.931-7.07 S281.88,456.79,280.019,454.93z"/>
<path class="cwssvgi_3" d="M361.235,156.268c-27.556-27.863-64.298-43.462-103.457-43.924c-0.593-0.007-1.181-0.01-1.771-0.01 c-38.174,0-74.41,14.566-102.206,41.127c-28.239,26.986-44.479,63.213-45.725,102.007c-0.768,23.909,4.275,47.827,14.586,69.168 c9.945,20.584,24.794,38.873,42.941,52.89c12.666,9.783,20.228,25.247,20.228,41.366v6.482v53.542 c0,18.243,14.842,33.084,33.084,33.084h65.301c18.242,0,33.084-14.842,33.084-33.084v-53.542c0-17.219,8.491-33.363,22.713-43.185 c40.068-27.672,63.989-73.225,63.989-121.854C404.002,221.112,388.813,184.154,361.235,156.268z M297.3,478.916 c0,7.215-5.869,13.084-13.084,13.084h-65.301c-7.215,0-13.084-5.87-13.084-13.084V472h33.121c5.522,0,10-4.477,10-10 s-4.478-10-10-10h-33.121v-16.626H297.3V478.916z M328.647,365.732c-16.849,11.635-27.869,29.71-30.653,49.642h-92.25 c-1.038-20.987-11.307-40.848-27.916-53.676c-32.478-25.085-51.08-64.557-49.762-105.587 c2.202-68.564,59.455-123.777,127.971-123.777c0.497,0,1.007,0.003,1.505,0.009c69.73,0.822,126.46,58.239,126.46,127.992 C384.002,302.394,363.309,341.794,328.647,365.732z"/>
<path class="cwssvgi_4" d="M485.25,0h-98.5C372,0,360,12,360,26.75v86.5C360,128,372,140,386.75,140h98.5C500,140,512,128,512,113.25v-86.5 C512,12,500,0,485.25,0z M492,113.25c0,3.722-3.028,6.75-6.75,6.75h-98.5c-3.722,0-6.75-3.028-6.75-6.75v-86.5 c0-3.722,3.028-6.75,6.75-6.75h98.5c3.722,0,6.75,3.028,6.75,6.75V113.25z"/>
<path class="cwssvgi_5" d="M113.25,0h-86.5C12,0,0,12,0,26.75v98.5C0,140,12,152,26.75,152h86.5C128,152,140,140,140,125.25v-98.5 C140,12,128,0,113.25,0z M120,125.25c0,3.722-3.028,6.75-6.75,6.75h-86.5c-3.722,0-6.75-3.028-6.75-6.75v-98.5 c0-3.722,3.028-6.75,6.75-6.75h86.5c3.722,0,6.75,3.028,6.75,6.75V125.25z"/>
<path class="cwssvgi_6" d="M121.25,381.5h-90.5C13.794,381.5,0,395.294,0,412.25v69C0,498.206,13.794,512,30.75,512h90.5 c16.956,0,30.75-13.794,30.75-30.75v-69C152,395.294,138.206,381.5,121.25,381.5z M30.75,492C24.822,492,20,487.178,20,481.25 v-7.107l26.375-26.375L90.607,492H30.75z M132,481.25c0,5.928-4.822,10.75-10.75,10.75h-2.901 c-0.439-0.786-0.984-1.528-1.652-2.196L88.893,462l22.546-22.546L132,460.016V481.25z M132,431.732l-13.49-13.491 c-1.875-1.875-4.419-2.929-7.071-2.929c-2.652,0-5.195,1.054-7.071,2.929L74.75,447.857l-21.304-21.304 c-3.906-3.905-10.236-3.905-14.143,0L20,445.857V412.25c0-5.928,4.822-10.75,10.75-10.75h90.5c5.928,0,10.75,4.822,10.75,10.75 V431.732z"/>
<path class="cwssvgi_7" d="M470,61.34l-46.414-26.797c-3.094-1.787-6.906-1.786-10,0c-3.094,1.786-5,5.087-5,8.66v53.595c0,3.573,1.906,6.874,5,8.66 c1.547,0.893,3.273,1.34,5,1.34s3.453-0.447,5-1.34L470,78.66c3.094-1.786,5-5.087,5-8.66S473.094,63.126,470,61.34z M428.586,79.477V60.523L445,70L428.586,79.477z"/>
<path class="cwssvgi_8" d="M103.353,100.503l-24.14-57.18C77.65,39.619,74.02,37.212,70,37.212c-4.02,0-7.649,2.407-9.213,6.111l-24.14,57.18 c-2.147,5.089,0.236,10.955,5.324,13.103c5.091,2.146,10.954-0.235,13.103-5.324l2.588-6.131h24.677l2.588,6.131 c1.612,3.819,5.317,6.113,9.217,6.113c1.297,0,2.616-0.254,3.886-0.79C103.118,111.457,105.501,105.591,103.353,100.503z M66.105,82.151L70,72.925l3.895,9.226H66.105z"/>
<path class="cwssvgi_9" d="M484.33,362.243c-7.884,0-12.661-6.326-13.166-7.026c-2.373-3.748-6.868-5.385-11.141-4.158 c-4.287,1.23-7.174,5.256-7.174,9.717v75.146c-6.127-3.661-13.283-5.772-20.925-5.772c-22.566,0-40.925,18.359-40.925,40.925 S409.358,512,431.925,512c22.567,0,40.925-18.359,40.925-40.925v-90.813c3.453,1.223,7.295,1.98,11.48,1.98 c7.123,0,7.636,5.19,7.67,5.716c0,5.523,4.478,10,10,10c5.522,0,10-4.477,10-10C512,377.281,503.415,362.243,484.33,362.243z M431.925,492C420.387,492,411,482.613,411,471.075c0-11.538,9.387-20.925,20.925-20.925c11.538,0,20.925,9.387,20.925,20.925 C452.85,482.613,443.463,492,431.925,492z"/>
<path class="cwssvgi_10" d="M256,0c-5.522,0-10,4.477-10,10v39.5c0,5.523,4.478,10,10,10c5.522,0,10-4.477,10-10V10C266,4.477,261.522,0,256,0z"/>
<path class="cwssvgi_11" d="M263.069,76.93C261.21,75.07,258.63,74,256,74c-2.641,0-5.21,1.07-7.07,2.93S246,81.37,246,84s1.069,5.21,2.93,7.07 c1.861,1.86,4.44,2.93,7.07,2.93s5.21-1.07,7.069-2.93C264.93,89.21,266,86.63,266,84S264.93,78.79,263.069,76.93z"/>
<path class="cwssvgi_12" d="M502,246.127h-64.914c-5.522,0-10,4.477-10,10s4.478,10,10,10H502c5.522,0,10-4.477,10-10S507.522,246.127,502,246.127z" />
<path class="cwssvgi_13" d="M75.168,246H10c-5.522,0-10,4.477-10,10s4.478,10,10,10h65.168c5.522,0,10-4.477,10-10S80.69,246,75.168,246z"/></svg>