<svg data-cwssvg-init  class="034-promotion.svg" version="1.1" xmlns="http://www.w3.org/2000/svg" xmlns:xlink="http://www.w3.org/1999/xlink" x="0px" y="0px" viewBox="0 0 512 512" style="enable-background:new 0 0 512 512;" xml:space="preserve">
<path class="cwssvgi_0" d="M315.79,415.666c5.522,0,10-4.477,10-10V269.268c0.001-3.116-1.451-6.053-3.926-7.945 c-2.476-1.892-5.689-2.522-8.696-1.706l-197.474,53.684H66.588c-15.675,0-28.608,11.958-30.158,27.23 C15.628,345.057,0,363.604,0,385.741c0,22.147,15.642,40.7,36.457,45.215c1.399,12.844,10.853,23.297,23.191,26.199l20.928,48.787 c1.577,3.675,5.191,6.058,9.19,6.058h50.441c3.362,0,6.499-1.689,8.35-4.497c1.85-2.807,2.166-6.356,0.841-9.446l-15.019-35.012 l178.788,48.604c0.864,0.235,1.746,0.35,2.622,0.35c2.172,0,4.311-0.708,6.074-2.056c2.475-1.892,3.927-4.829,3.927-7.944v-19 c0-5.523-4.478-10-10-10c-5.522,0-10,4.477-10,10v5.918L127.028,440.32V330.946l178.762-48.597v123.317 C305.79,411.189,310.268,415.666,315.79,415.666z M36.273,410.033C26.733,406.09,20,396.689,20,385.741 s6.733-20.349,16.273-24.291V410.033z M66.588,437.967c-5.688,0-10.314-4.627-10.314-10.314v-84.037h-0.001 c0-5.687,4.627-10.314,10.314-10.314h40.441v104.665H66.588z M96.358,492l-14.6-34.034h28.679l14.6,34.034H96.358z"/>
<path class="cwssvgi_1" d="M322.859,440.9c-1.859-1.87-4.429-2.93-7.069-2.93c-2.63,0-5.21,1.06-7.07,2.93c-1.86,1.86-2.93,4.44-2.93,7.07 s1.069,5.21,2.93,7.07c1.86,1.86,4.44,2.93,7.07,2.93c2.64,0,5.21-1.07,7.069-2.93c1.86-1.86,2.931-4.44,2.931-7.07 S324.72,442.76,322.859,440.9z"/>
<path class="cwssvgi_2" d="M416.589,296.876c-3.905-3.906-10.235-3.905-14.142,0c-3.905,3.905-3.905,10.237,0,14.142 c19.932,19.931,30.908,46.43,30.908,74.616c0,28.187-10.977,54.686-30.908,74.616c-3.905,3.905-3.905,10.237,0,14.142 c1.953,1.953,4.512,2.929,7.071,2.929s5.118-0.977,7.071-2.929c23.708-23.708,36.766-55.229,36.766-88.758 C453.355,352.106,440.297,320.584,416.589,296.876z"/>
<path class="cwssvgi_3" d="M387.879,325.587c-3.905-3.905-10.235-3.905-14.143,0c-3.905,3.905-3.905,10.237,0,14.142 c25.312,25.312,25.312,66.498,0,91.81c-3.905,3.905-3.905,10.237,0,14.142c1.953,1.953,4.512,2.929,7.071,2.929 s5.118-0.977,7.071-2.929C420.987,412.571,420.987,358.697,387.879,325.587z"/>
<path class="cwssvgi_4" d="M357.607,355.859c-3.905-3.905-10.235-3.906-14.142-0.001c-3.905,3.905-3.905,10.237,0,14.142 c8.62,8.621,8.62,22.647,0,31.268c-3.905,3.905-3.905,10.237,0,14.142c1.953,1.953,4.512,2.929,7.071,2.929 s5.118-0.977,7.071-2.929C374.025,398.992,374.025,372.277,357.607,355.859z"/>
<path class="cwssvgi_5" d="M479.454,137.138l-38.496-12.757c10.19-11.647,16.386-26.872,16.386-43.527v-14.66C457.345,29.695,427.65,0,391.15,0 s-66.195,29.695-66.195,66.195v14.66c0,16.655,6.196,31.88,16.387,43.527l-38.496,12.757 c-19.467,6.451-32.546,24.563-32.546,45.071v41.812c0,5.523,4.478,10,10,10H502c5.522,0,10-4.477,10-10V182.21 C512,161.702,498.921,143.589,479.454,137.138z M344.954,66.195h0.001C344.955,40.723,365.679,20,391.15,20 s46.194,20.723,46.194,46.195v14.66c0,16.03-8.211,30.174-20.644,38.461c-0.681,0.329-1.323,0.734-1.916,1.209 c-6.92,4.138-15.003,6.525-23.635,6.525c-8.633,0-16.717-2.386-23.637-6.526c-0.592-0.475-1.234-0.88-1.914-1.208 c-12.433-8.287-20.644-22.431-20.644-38.461V66.195z M492,214.021h-24.85v-24.372c0-5.523-4.478-10-10-10c-5.522,0-10,4.477-10,10 v24.372h-112v-24.372c0-5.523-4.478-10-10-10c-5.522,0-10,4.477-10,10v24.372H290.3v-31.812c0-11.87,7.57-22.353,18.837-26.087 l50.894-16.865c9.283,4.966,19.876,7.792,31.12,7.792c11.243,0,21.836-2.826,31.119-7.792l50.894,16.865 C484.43,159.856,492,170.34,492,182.209V214.021z"/>
<path class="cwssvgi_6" d="M181,102H53c-29.225,0-53,23.776-53,53s23.775,53,53,53h87.75c10.614,0,19.25,8.636,19.25,19.25v38.462 c0,5.523,4.478,10,10,10c5.522,0,10-4.477,10-10V227.25c0-21.643-17.607-39.25-39.25-39.25H53c-18.196,0-33-14.804-33-33 s14.804-33,33-33h128c5.522,0,10-4.477,10-10S186.522,102,181,102z"/>
<path class="cwssvgi_7" d="M227.069,104.93C225.21,103.07,222.63,102,220,102s-5.21,1.07-7.07,2.93S210,109.37,210,112s1.069,5.21,2.93,7.07 c1.861,1.86,4.44,2.93,7.07,2.93s5.21-1.07,7.069-2.93c1.86-1.86,2.931-4.44,2.931-7.07S228.93,106.79,227.069,104.93z"/>
<path class="cwssvgi_8" d="M268.666,104.928l-15.513-15.513c-3.906-3.905-10.236-3.905-14.143,0c-3.905,3.905-3.905,10.237,0,14.143l8.441,8.441 l-8.441,8.441c-3.905,3.907-3.905,10.239,0.001,14.144c1.953,1.953,4.512,2.929,7.071,2.929c2.559,0,5.118-0.976,7.071-2.929 l15.513-15.513C272.571,115.166,272.571,108.834,268.666,104.928z"/></svg>