<svg data-cwssvg-init  class="035-digital-marketing-1.svg" version="1.1" xmlns="http://www.w3.org/2000/svg" xmlns:xlink="http://www.w3.org/1999/xlink" x="0px" y="0px" viewBox="0 0 512.002 512.002" style="enable-background:new 0 0 512.002 512.002;" xml:space="preserve">
<path class="cwssvgi_0" d="M511.965,212.063c-0.002-4.917-3.578-9.103-8.436-9.873l-36.912-5.849l-19.584-47.227l21.942-30.254 c2.887-3.98,2.452-9.469-1.026-12.944l-62.021-61.979c-3.479-3.478-8.969-3.907-12.946-1.017l-30.224,21.957l-47.261-19.554 l-5.873-36.894c-0.773-4.855-4.96-8.428-9.876-8.428c-0.001,0-0.003,0-0.004,0l-87.682,0.036 c-4.917,0.002-9.104,3.579-9.873,8.435l-5.849,36.914l-47.228,19.583L118.86,43.026c-3.979-2.886-9.469-2.452-12.944,1.026 l-61.978,62.021c-3.477,3.479-3.907,8.968-1.018,12.946l21.958,30.225l-19.556,47.26l-36.894,5.874 c-4.856,0.773-8.43,4.962-8.428,9.879l0.036,87.682c0.002,4.917,3.579,9.104,8.436,9.873l36.913,5.848l19.584,47.227 l-21.943,30.254c-2.887,3.98-2.452,9.469,1.026,12.945l62.021,61.978c3.479,3.477,8.967,3.907,12.946,1.017l30.224-21.957 l47.261,19.555l5.873,36.894c0.773,4.855,4.96,8.428,9.876,8.428c0.001,0,0.003,0,0.004,0l87.682-0.036 c4.917-0.002,9.104-3.579,9.873-8.435l5.849-36.914l47.228-19.583l30.254,21.943c3.979,2.888,9.469,2.452,12.944-1.026 l61.978-62.021c3.477-3.479,3.907-8.968,1.018-12.946l-21.958-30.225l19.556-47.259l36.894-5.875 c4.856-0.773,8.43-4.962,8.428-9.879L511.965,212.063z M458.008,296.628c-3.435,0.547-6.338,2.839-7.668,6.052l-23.835,57.603 c-1.33,3.213-0.895,6.887,1.149,9.701l20.229,27.847l-49.909,49.944l-27.875-20.218c-2.815-2.043-6.489-2.474-9.701-1.143 l-57.568,23.872c-3.213,1.332-5.503,4.237-6.047,7.672l-5.389,34.01l-70.607,0.029l-5.411-33.991 c-0.547-3.435-2.839-6.338-6.053-7.668l-57.604-23.835c-1.231-0.51-2.53-0.76-3.822-0.76c-2.08,0-4.143,0.649-5.879,1.91 l-27.846,20.229l-49.943-49.909l20.217-27.875c2.042-2.815,2.475-6.489,1.143-9.701l-23.871-57.568 c-1.332-3.213-4.237-5.502-7.673-6.047l-34.011-5.388l-0.028-70.608l33.99-5.412c3.435-0.546,6.338-2.839,7.668-6.052 l23.835-57.604c1.33-3.213,0.895-6.887-1.149-9.701L64.12,114.17l49.909-49.944l27.875,20.217 c2.815,2.042,6.489,2.474,9.701,1.143l57.568-23.872c3.213-1.332,5.503-4.237,6.047-7.672l5.389-34.01l70.607-0.029l5.411,33.991 c0.547,3.435,2.839,6.338,6.053,7.668l57.604,23.835c3.214,1.33,6.887,0.894,9.701-1.15l27.846-20.229l49.943,49.91 l-20.217,27.875c-2.042,2.815-2.475,6.489-1.143,9.702l23.872,57.568c1.332,3.212,4.237,5.502,7.673,6.046l34.01,5.389 l0.028,70.607L458.008,296.628z"/>
<path class="cwssvgi_1" d="M345.179,111.229c-32.017-19.757-70.355-28.351-107.955-24.192c-38.188,4.221-74.208,21.537-101.43,48.757 c-26.154,26.154-42.766,59.274-48.038,95.781c-5.098,35.288,1.179,72.019,17.672,103.43c1.788,3.406,5.264,5.354,8.862,5.353 c1.566,0,3.157-0.37,4.64-1.148c4.891-2.567,6.772-8.613,4.205-13.502c-30.678-58.427-19.907-129.063,26.803-175.772 c49.404-49.406,125.37-58.324,184.738-21.688c4.699,2.9,10.861,1.442,13.762-3.258 C351.337,120.291,349.878,114.13,345.179,111.229z"/>
<path class="cwssvgi_2" d="M376.307,135.895l-0.14-0.14c-3.928-3.883-10.241-3.832-14.125,0.096c-3.883,3.927-3.831,10.275,0.097,14.159 c0.004,0.005,0.052,0.052,0.056,0.057c1.947,1.947,4.492,2.918,7.039,2.918c2.558,0,5.118-0.979,7.075-2.933 C380.215,146.153,380.203,139.805,376.307,135.895z"/>
<path class="cwssvgi_3" d="M400.768,166.816c-2.901-4.701-9.061-6.16-13.762-3.259c-4.7,2.901-6.158,9.062-3.258,13.762 c36.643,59.369,27.726,135.339-21.684,184.748c-47.29,47.29-121.021,57.525-179.303,24.885c-4.82-2.697-10.913-0.98-13.611,3.839 c-2.699,4.818-0.98,10.913,3.838,13.611c25.29,14.164,54.206,21.58,83.257,21.58c7.335,0,14.684-0.474,21.979-1.43 c37.379-4.903,71.261-21.62,97.983-48.341c27.223-27.223,44.539-63.246,48.759-101.435 C429.122,237.172,420.529,198.831,400.768,166.816z"/>
<path class="cwssvgi_4" d="M149.935,362.066l-0.489-0.492c-3.884-3.928-10.216-3.961-14.143-0.078c-3.927,3.883-3.961,10.215-0.078,14.142 l0.568,0.571c1.953,1.953,4.512,2.929,7.071,2.929c2.559,0,5.118-0.976,7.071-2.929 C153.84,372.304,153.84,365.972,149.935,362.066z"/>
<path class="cwssvgi_5" d="M309.997,171.554c-2.714-1.866-6.172-2.275-9.248-1.094l-118.268,45.404h-23.794c-26.393,0-47.863,21.472-47.863,47.864 c0,26.393,21.472,47.864,47.863,47.864h23.794l118.268,45.404c1.16,0.445,2.374,0.665,3.583,0.665 c1.995,0,3.975-0.597,5.665-1.759c2.714-1.865,4.336-4.948,4.336-8.241V179.794C314.333,176.501,312.711,173.419,309.997,171.554z M174.334,291.591h-15.647c-15.364,0-27.864-12.5-27.864-27.864c0-15.365,12.5-27.865,27.864-27.865h15.647V291.591z M294.334,333.109l-20-7.678v-61.704c0-5.523-4.478-10-10-10c-5.522,0-10,4.477-10,10v54.026l-59.999-23.034v-61.983 l99.999-38.391V333.109z"/>
<path class="cwssvgi_6" d="M264.334,220.241c-5.522,0-10,4.477-10,10v0.146c0,5.523,4.477,10,10,10c5.522,0,10-4.477,10-10v-0.146 C274.334,224.718,269.856,220.241,264.334,220.241z"/>
<path class="cwssvgi_7" d="M342.611,238.314c-3.905-3.905-10.235-3.905-14.143,0c-3.905,3.905-3.905,10.237,0,14.142 c6.215,6.215,6.215,16.329,0,22.545c-3.905,3.904-3.905,10.236,0.002,14.141c1.952,1.953,4.511,2.929,7.07,2.929 c2.559,0,5.119-0.977,7.071-2.929C356.624,275.127,356.624,252.327,342.611,238.314z"/>
<path class="cwssvgi_8" d="M367.414,213.51c-3.905-3.905-10.235-3.905-14.143,0c-3.905,3.905-3.905,10.237,0,14.142 c19.894,19.891,19.894,52.258,0.001,72.151c-3.905,3.905-3.905,10.237,0,14.142c1.953,1.953,4.512,2.929,7.071,2.929 c2.559,0,5.118-0.977,7.071-2.929C395.102,286.255,395.102,241.2,367.414,213.51z"/></svg>