<svg data-cwssvg-init  class="036-ecommerce.svg" version="1.1" xmlns="http://www.w3.org/2000/svg" xmlns:xlink="http://www.w3.org/1999/xlink" x="0px" y="0px" viewBox="0 0 512 512" style="enable-background:new 0 0 512 512;" xml:space="preserve">
<path class="cwssvgi_0" d="M204.57,74.924c-1.86-1.86-4.44-2.93-7.07-2.93c-2.63,0.001-5.21,1.07-7.07,2.93s-2.93,4.44-2.93,7.07 s1.07,5.21,2.93,7.07c1.86,1.86,4.44,2.93,7.07,2.93s5.21-1.07,7.07-2.93c1.86-1.86,2.93-4.44,2.93-7.07 S206.43,76.784,204.57,74.924z"/>
<path class="cwssvgi_1" d="M263.07,395.915c-1.86-1.86-4.44-2.93-7.07-2.93c-2.63-0.001-5.21,1.07-7.07,2.93s-2.93,4.44-2.93,7.07 s1.07,5.21,2.93,7.07s4.44,2.93,7.07,2.93s5.21-1.07,7.07-2.93s2.93-4.44,2.93-7.07S264.93,397.775,263.07,395.915z"/>
<path class="cwssvgi_2" d="M332.75,489.995c-1.501-5.316-7.028-8.406-12.342-6.904c-82.273,23.25-170.897,0.179-231.285-60.21 C44.548,378.307,20,319.042,20,256.004c0-5.523-4.477-10-10-10s-10,4.477-10,10c0,68.38,26.629,132.667,74.98,181.02 c48.645,48.645,114.176,74.967,181.232,74.967c23.241,0,46.667-3.163,69.635-9.653C331.161,500.836,334.252,495.31,332.75,489.995 z"/>
<path class="cwssvgi_3" d="M368.41,475.239c-2.267-5.036-8.186-7.283-13.223-5.016c-0.063,0.028-0.183,0.084-0.245,0.113 c-4.989,2.37-7.112,8.334-4.742,13.323c1.711,3.604,5.299,5.712,9.04,5.712c1.416,0,2.854-0.302,4.219-0.939 C368.45,486.144,370.667,480.253,368.41,475.239z"/>
<path class="cwssvgi_4" d="M437.02,74.984C404.551,42.516,364.003,19.363,319.758,8.03c-42.947-11-88.258-10.679-131.033,0.928 c-5.331,1.446-8.479,6.94-7.032,12.27c1.446,5.33,6.942,8.483,12.269,7.032c81.533-22.124,169.247,1.198,228.915,60.867 C467.452,133.701,492,192.966,492,256.004c0,5.523,4.477,10,10,10s10-4.477,10-10C512,187.624,485.371,123.337,437.02,74.984z"/>
<path class="cwssvgi_5" d="M161.745,28.507c-2.303-5.005-8.231-7.199-13.245-4.913c-0.021,0.009-0.062,0.028-0.082,0.038 c-5.009,2.326-7.164,8.263-4.838,13.272c1.692,3.644,5.311,5.783,9.087,5.783c1.414,0,2.851-0.3,4.215-0.934 C161.88,39.433,164.049,33.512,161.745,28.507z"/>
<path class="cwssvgi_6" d="M428,377.57c-6.617,0-12-4.471-12-9.966c0-5.496,5.383-9.966,12-9.966s12,4.471,12,9.966c0,5.523,4.477,10,10,10 s10-4.477,10-10c0-13.257-9.244-24.523-22.01-28.463c-0.103-5.434-4.532-9.809-9.99-9.809c-5.458,0-9.888,4.375-9.99,9.809 c-12.766,3.94-22.01,15.206-22.01,28.463c0,16.523,14.355,29.966,32,29.966c6.617,0,12,4.471,12,9.966s-5.383,9.966-12,9.966 s-12-4.471-12-9.966c0-5.523-4.477-10-10-10s-10,4.477-10,10c0,13.261,9.25,24.53,22.022,28.466 c0.227,5.322,4.601,9.57,9.978,9.57c5.377,0,9.751-4.248,9.978-9.57C450.75,432.066,460,420.797,460,407.536 C460,391.013,445.645,377.57,428,377.57z"/>
<path class="cwssvgi_7" d="M428,303.952c-20.774,0-39.796,7.596-54.475,20.136V103.216c0-17.216-14.006-31.222-31.222-31.222h-103.97 c-5.523,0-10,4.477-10,10s4.477,10,10,10h103.97c6.188,0,11.222,5.034,11.222,11.222v14.052H167.702 C164.231,74.115,128.031,40.056,84,40.056c-46.318,0-84,37.682-84,84s37.682,84,84,84c20.774,0,39.796-7.596,54.475-20.136 v220.894c0,17.216,14.006,31.222,31.222,31.222H318c5.523,0,10-4.477,10-10s-4.477-10-10-10H169.697 c-6.188,0-11.222-5.034-11.222-11.222v-21.185h185.533c0,0.108-0.008,0.215-0.008,0.323c0,46.318,37.682,84,84,84s84-37.682,84-84 S474.318,303.952,428,303.952z M140.006,154.986c-0.146,0.232-0.284,0.469-0.411,0.713 c-11.032,19.306-31.812,32.357-55.595,32.357c-35.29,0-64-28.71-64-64c0-35.29,28.71-64,64-64s64,28.71,64,64 C148,135.269,145.093,145.812,140.006,154.986z M353.525,349.173c-3.029,5.793-5.408,11.975-7.025,18.458H158.475v-0.002V196.434 h11.263l20.22,91.631c-2.342,3.982-3.691,8.615-3.691,13.559c0,14.799,12.041,26.84,26.84,26.84 c12.752,0,23.448-8.942,26.165-20.883h14.532c2.718,11.941,13.414,20.883,26.166,20.883s23.448-8.942,26.165-20.883h3.791 c4.662,0,8.706-3.222,9.747-7.766l20.997-91.609c0.681-2.968-0.029-6.084-1.926-8.465c-1.897-2.381-4.776-3.769-7.821-3.769 H190.117l-2.58-11.691c-1.011-4.583-5.073-7.845-9.765-7.845h-19.297V162.84c4.119-7.879,7.035-16.48,8.477-25.57h186.573V349.173 z M246.645,261.775h61.229l-5.686,24.807c-4.832-7.115-12.988-11.799-22.218-11.799c-9.654,0-18.132,5.126-22.861,12.796h-21.141 c-4.729-7.671-13.207-12.796-22.861-12.796c-1.875,0-3.706,0.195-5.474,0.563L194.53,215.97h123.842l-5.914,25.805h-65.813 c-5.523,0-10,4.477-10,10C236.645,257.298,241.122,261.775,246.645,261.775z M286.81,301.623c0,3.771-3.068,6.84-6.84,6.84 c-3.772,0-6.84-3.068-6.84-6.84c0-3.772,3.068-6.84,6.84-6.84C283.742,294.783,286.81,297.852,286.81,301.623z M219.947,301.623 c0,3.772-3.068,6.84-6.84,6.84c-3.772,0-6.84-3.068-6.84-6.84c0-3.772,3.069-6.84,6.84-6.84S219.947,297.85,219.947,301.623z M428,451.952c-35.29,0-64-28.71-64-64c0-35.29,28.71-64,64-64c35.29,0,64,28.71,64,64C492,423.242,463.29,451.952,428,451.952z" />
<path class="cwssvgi_8" d="M84,114.438c-6.617,0-12-4.471-12-9.966s5.383-9.966,12-9.966s12,4.471,12,9.966c0,5.523,4.477,10,10,10s10-4.477,10-10 c0-13.261-9.25-24.53-22.022-28.466c-0.227-5.322-4.601-9.57-9.978-9.57s-9.751,4.248-9.978,9.57 C61.25,79.941,52,91.211,52,104.472c0,16.523,14.355,29.966,32,29.966c6.617,0,12,4.471,12,9.966c0,5.496-5.383,9.966-12,9.966 s-12-4.471-12-9.966c0-5.523-4.477-10-10-10s-10,4.477-10,10c0,13.257,9.244,24.523,22.01,28.463 c0.103,5.434,4.532,9.809,9.99,9.809s9.888-4.375,9.99-9.809c12.766-3.94,22.01-15.206,22.01-28.463 C116,127.881,101.645,114.438,84,114.438z"/></svg>