<svg data-cwssvg-init  class="041-video-player.svg" version="1.1" xmlns="http://www.w3.org/2000/svg" xmlns:xlink="http://www.w3.org/1999/xlink" x="0px" y="0px" viewBox="0 0 512 512" style="enable-background:new 0 0 512 512;" xml:space="preserve">
<path class="cwssvgi_0" d="M303.749,205.787l-52.187-33.449c-6.66-4.27-15.11-4.563-22.053-0.768c-6.941,3.796-11.254,11.069-11.254,18.98v66.899 c0,7.912,4.313,15.185,11.254,18.98c3.243,1.773,6.814,2.654,10.379,2.654c4.066,0,8.124-1.146,11.674-3.422l52.187-33.449 c6.236-3.997,9.959-10.806,9.959-18.213S309.985,209.784,303.749,205.787z M292.956,225.375l-52.187,33.449 c-0.202,0.129-0.814,0.521-1.664,0.058c-0.85-0.465-0.85-1.193-0.85-1.433V190.55c0-0.239,0-0.968,0.85-1.433 c0.299-0.163,0.568-0.22,0.801-0.22c0.429,0,0.732,0.194,0.863,0.278l52.187,33.449c0.499,0.32,0.752,0.782,0.752,1.375 C293.708,224.592,293.455,225.055,292.956,225.375z"/>
<path class="cwssvgi_1" d="M263.069,29.93C261.21,28.07,258.63,27,256,27s-5.21,1.07-7.07,2.93S246,34.37,246,37s1.069,5.21,2.93,7.07 c1.861,1.86,4.44,2.93,7.07,2.93s5.21-1.07,7.069-2.93C264.93,42.21,266,39.63,266,37S264.93,31.79,263.069,29.93z"/>
<path class="cwssvgi_2" d="M502,27H303.708c-5.522,0-10,4.477-10,10s4.478,10,10,10H492v418H20V47h192.002c5.522,0,10-4.477,10-10s-4.478-10-10-10 H10C4.478,27,0,31.477,0,37v438c0,5.523,4.478,10,10,10h492c5.522,0,10-4.477,10-10V37C512,31.477,507.522,27,502,27z"/>
<path class="cwssvgi_3" d="M453.75,240.476c-5.522,0-10,4.477-10,10v90.952c0,5.523,4.478,10,10,10c5.522,0,10-4.477,10-10v-90.952 C463.75,244.953,459.272,240.476,453.75,240.476z"/>
<path class="cwssvgi_4" d="M460.819,204.42c-1.859-1.86-4.439-2.93-7.069-2.93s-5.21,1.07-7.07,2.93c-1.86,1.86-2.93,4.44-2.93,7.07 s1.069,5.21,2.93,7.07c1.86,1.86,4.44,2.93,7.07,2.93s5.21-1.07,7.069-2.93c1.86-1.86,2.931-4.44,2.931-7.07 S462.68,206.28,460.819,204.42z"/>
<path class="cwssvgi_5" d="M256,114c-60.654,0-110,49.346-110,110s49.346,110,110,110s110-49.346,110-110S316.654,114,256,114z M256,314 c-49.626,0-90-40.374-90-90c0-49.626,40.374-90,90-90c49.626,0,90,40.374,90,90C346,273.626,305.626,314,256,314z"/>
<path class="cwssvgi_6" d="M462.333,401H212.455c-4.499-18.345-21.075-32-40.788-32h-24c-19.713,0-36.289,13.655-40.788,32H43 c-5.522,0-10,4.477-10,10s4.478,10,10,10h63.879c4.499,18.345,21.075,32,40.788,32h24c19.713,0,36.289-13.655,40.788-32h249.878 c5.522,0,10-4.477,10-10S467.855,401,462.333,401z M171.667,433h-24c-12.131,0-22-9.869-22-22c0-12.131,9.869-22,22-22h24 c12.131,0,22,9.869,22,22C193.667,423.131,183.798,433,171.667,433z"/></svg>