<svg data-cwssvg-init  class="042-keyword.svg" version="1.1" xmlns="http://www.w3.org/2000/svg" xmlns:xlink="http://www.w3.org/1999/xlink" x="0px" y="0px" viewBox="0 0 512 512" style="enable-background:new 0 0 512 512;" xml:space="preserve">
<path class="cwssvgi_0" d="M470.001,0.006c-1.826,0-7.094,0-8,0H159.995c-5.522,0-10,4.477-10,10c0,5.523,4.478,10,10,10h274.248 c-3.954,6.403-6.242,13.938-6.242,21.999v427.988c0,12.132-9.87,22-22.001,22s-22-9.87-22-22v-31.996 c0-23.159-18.841-42-42.001-42H137.995V216.334c0-5.523-4.478-10-10-10s-10,4.477-10,10v179.662H41.999 C18.841,395.997,0,414.837,0,437.996v63.998c0,5.523,4.478,10,10,10h396.001c23.159,0,42.001-18.842,42.001-42V142.002H502 c5.522,0,10-4.477,10-10V42.005C512,18.848,493.159,0.006,470.001,0.006z M299.998,437.996v53.998H20v-21h85.678 c5.522,0,10-4.477,10-10c0-5.523-4.478-10-10-10H20v-12.999c0-12.131,9.869-21.999,21.999-21.999h264.242 C302.286,422.398,299.998,429.934,299.998,437.996z M319.998,491.994v-21.995v-22.002v-9.999c0-12.132,9.87-22,22.001-22 s22.001,9.869,22.001,22v31.996c0,8.063,2.288,15.598,6.242,22H319.998z M492,122.003h-43.999V42.005 c0-12.131,9.869-21.999,21.999-21.999c12.131,0,21.999,9.869,21.999,21.999V122.003z"/>
<path class="cwssvgi_1" d="M376.996,54.005H189.001c-5.522,0-10,4.477-10,10v71.998c0,5.523,4.478,10,10,10h187.995c5.522,0,10-4.477,10-10V64.004 C386.996,58.482,382.518,54.005,376.996,54.005z M366.997,126.003H199.001V74.004h167.996V126.003z"/>
<path class="cwssvgi_2" d="M376.996,169.798h-187.46c-5.522,0-10,4.477-10,10c0,5.523,4.478,10,10,10h187.46c5.522,0,10-4.477,10-10 C386.996,174.275,382.518,169.798,376.996,169.798z"/>
<path class="cwssvgi_3" d="M384.062,264.929c-1.859-1.86-4.43-2.93-7.069-2.93c-2.631,0-5.211,1.07-7.07,2.93c-1.86,1.86-2.93,4.44-2.93,7.07 s1.069,5.21,2.93,7.07c1.859,1.86,4.439,2.93,7.07,2.93c2.64,0,5.21-1.07,7.069-2.93c1.86-1.86,2.931-4.44,2.931-7.07 S385.923,266.789,384.062,264.929z"/>
<path class="cwssvgi_4" d="M328.037,261.999h-138.5c-5.522,0-10,4.477-10,10c0,5.523,4.478,10,10,10h138.5c5.522,0,10-4.477,10-10 C338.036,266.476,333.559,261.999,328.037,261.999z"/>
<path class="cwssvgi_5" d="M376.996,215.896h-187.46c-5.522,0-10,4.477-10,10s4.478,10,10,10h187.46c5.522,0,10-4.477,10-10 S382.518,215.896,376.996,215.896z"/>
<path class="cwssvgi_6" d="M256.006,354.201h-66.47c-5.522,0-10,4.477-10,10s4.478,10,10,10h66.47c5.522,0,10-4.477,10-10 S261.528,354.201,256.006,354.201z"/>
<path class="cwssvgi_7" d="M256.006,308.097h-66.47c-5.522,0-10,4.477-10,10s4.478,10,10,10h66.47c5.522,0,10-4.477,10-10 S261.528,308.097,256.006,308.097z"/>
<path class="cwssvgi_8" d="M376.469,354.201h-66.471c-5.522,0-10,4.477-10,10s4.478,10,10,10h66.471c5.522,0,10-4.477,10-10 S381.991,354.201,376.469,354.201z"/>
<path class="cwssvgi_9" d="M376.469,308.097h-66.471c-5.522,0-10,4.477-10,10s4.478,10,10,10h66.471c5.522,0,10-4.477,10-10 S381.991,308.097,376.469,308.097z"/>
<path class="cwssvgi_10" d="M74.011,53.997c-40.803,0-73.998,33.195-73.998,73.998c0,30.96,19.121,57.524,46.167,68.546v135.633 c0,3.235,1.564,6.27,4.199,8.146l21.067,15.002c1.708,1.216,3.739,1.854,5.801,1.854c0.708,0,1.42-0.075,2.124-0.228 c2.753-0.599,5.125-2.33,6.534-4.769l16.932-29.3c0.879-1.521,1.342-3.247,1.342-5.003V195.538 c25.803-11.571,43.831-37.483,43.831-67.543C148.009,87.192,114.814,53.997,74.011,53.997z M74.011,92.765 c4.865,0,8.823,3.958,8.823,8.824c0,4.866-3.958,8.823-8.823,8.823s-8.823-3.958-8.823-8.823S69.145,92.765,74.011,92.765z M84.179,239.099c-4.891,0.653-8.668,4.831-8.668,9.901s3.777,9.248,8.668,9.901v15.198c-4.891,0.653-8.668,4.831-8.668,9.901 s3.777,9.248,8.668,9.901v21.293L74.09,332.652l-7.911-5.633V201.575c2.575,0.272,5.187,0.418,7.832,0.418 c3.451,0,6.841-0.256,10.168-0.716V239.099z M74.01,181.992c-29.774,0-53.999-24.223-53.999-53.999 c0.001-25.706,18.064-47.261,42.159-52.675c-10.003,4.527-16.983,14.595-16.983,26.268c0,15.893,12.93,28.822,28.822,28.822 s28.822-12.93,28.822-28.822c0-11.674-6.98-21.741-16.983-26.268c24.096,5.414,42.159,26.968,42.159,52.675 C128.009,157.769,103.784,181.992,74.01,181.992z"/>
<path class="cwssvgi_11" d="M74.012,0.006c-5.522,0-10,4.477-10,10v24.186c0,5.523,4.478,10,10,10c5.522,0,10-4.477,10-10V10.006 C84.012,4.483,79.534,0.006,74.012,0.006z"/>
<path class="cwssvgi_12" d="M47.12,35.922L29.632,18.435c-3.906-3.905-10.236-3.905-14.143,0c-3.905,3.905-3.905,10.237,0,14.143l17.489,17.488 c1.953,1.953,4.512,2.929,7.071,2.929c2.559,0,5.118-0.976,7.071-2.929C51.025,46.16,51.025,39.828,47.12,35.922z"/>
<path class="cwssvgi_13" d="M132.532,18.445c-3.906-3.905-10.236-3.905-14.143,0L100.9,35.933c-3.905,3.905-3.905,10.237,0,14.143 c1.953,1.953,4.512,2.929,7.072,2.929c2.56,0,5.118-0.976,7.071-2.929l17.489-17.489C136.437,28.682,136.437,22.35,132.532,18.445 z"/>
<path class="cwssvgi_14" d="M151.408,453.924c-1.859-1.86-4.43-2.93-7.069-2.93c-2.63,0-5.21,1.07-7.07,2.93c-1.86,1.86-2.93,4.44-2.93,7.07 s1.069,5.21,2.93,7.07c1.861,1.86,4.44,2.93,7.07,2.93c2.64,0,5.21-1.07,7.069-2.93c1.87-1.86,2.931-4.44,2.931-7.07 S153.278,455.784,151.408,453.924z"/></svg>