<svg data-cwssvg-init  class="045-communication.svg" version="1.1" xmlns="http://www.w3.org/2000/svg" xmlns:xlink="http://www.w3.org/1999/xlink" x="0px" y="0px" viewBox="0 0 512.001 512.001" style="enable-background:new 0 0 512.001 512.001;" xml:space="preserve">
<path class="cwssvgi_0" d="M296.014,6.822H30.001C13.459,6.822,0,20.28,0,36.823v184.009c0,16.543,13.459,30.001,30.001,30.001h88.862l37.073,37.073 c1.953,1.953,4.511,2.929,7.071,2.929s5.118-0.976,7.072-2.929l37.073-37.073h88.861c16.543,0,30.001-13.459,30.001-30.001V36.823 C326.015,20.28,312.557,6.822,296.014,6.822z M306.014,220.832c0,5.514-4.486,10-10,10H203.01c-2.652,0-5.195,1.054-7.071,2.929 l-32.931,32.931l-32.931-32.931c-1.876-1.875-4.419-2.929-7.071-2.929H30.001c-5.514,0-10-4.486-10-10V36.823 c0-5.514,4.486-10,10-10h266.012c5.514,0,10,4.486,10,10V220.832z"/>
<path class="cwssvgi_1" d="M371.062,224.092c-1.859-1.86-4.439-2.93-7.069-2.93s-5.209,1.07-7.07,2.93s-2.93,4.44-2.93,7.07 c0,2.64,1.07,5.21,2.93,7.07c1.86,1.87,4.44,2.93,7.07,2.93c2.629,0,5.21-1.06,7.069-2.93c1.861-1.86,2.931-4.43,2.931-7.07 C373.994,228.532,372.922,225.962,371.062,224.092z"/>
<path class="cwssvgi_2" d="M482,221.165h-79.504c-5.522,0-10,4.477-10,10s4.478,10,10,10H482c5.514,0,10,4.486,10,10v184.009c0,5.514-4.486,10-10,10 h-93.004c-2.652,0-5.195,1.054-7.071,2.929l-32.931,32.931l-32.931-32.931c-1.876-1.875-4.419-2.929-7.071-2.929h-93.004 c-5.514,0-10-4.486-10-10V319.836c0-5.523-4.478-10-10-10c-5.522,0-10,4.477-10,10v115.339c0,16.543,13.459,30.001,30.001,30.001 h88.861l37.073,37.073c1.953,1.953,4.511,2.929,7.071,2.929c2.559,0,5.118-0.977,7.073-2.93l37.073-37.073H482 c16.543,0,30.001-13.459,30.001-30.001V251.166C512.001,234.624,498.542,221.165,482,221.165z"/>
<path class="cwssvgi_3" d="M77.504,99.826c-15.991,0-29.001,13.01-29.001,29.001s13.011,29.001,29.001,29.001c15.991,0,29.001-13.01,29.001-29.001 S93.494,99.826,77.504,99.826z M77.504,137.828c-4.963,0-9-4.038-9-9s4.037-9,9-9c4.963,0,9,4.038,9,9 S82.467,137.828,77.504,137.828z"/>
<path class="cwssvgi_4" d="M163.008,99.826c-15.991,0-29.001,13.01-29.001,29.001s13.011,29.001,29.001,29.001c15.991,0,29.001-13.01,29.001-29.001 S178.998,99.826,163.008,99.826z M163.008,137.828c-4.963,0-9-4.038-9-9s4.037-9,9-9c4.963,0,9,4.038,9,9 S167.971,137.828,163.008,137.828z"/>
<path class="cwssvgi_5" d="M248.512,99.826c-15.991,0-29.001,13.01-29.001,29.001s13.011,29.001,29.001,29.001c15.991,0,29.001-13.01,29.001-29.001 S264.502,99.826,248.512,99.826z M248.512,137.828c-4.963,0-9-4.038-9-9s4.037-9,9-9c4.963,0,9,4.038,9,9 S253.475,137.828,248.512,137.828z"/>
<path class="cwssvgi_6" d="M407.214,327.511l-58.487-37.488c-7.771-4.981-17.632-5.325-25.732-0.896c-8.1,4.429-13.133,12.917-13.133,22.148v74.977 c0,9.231,5.032,17.719,13.133,22.148c3.783,2.069,7.95,3.096,12.11,3.096c4.745,0,9.48-1.338,13.623-3.994l58.487-37.488 c7.276-4.664,11.621-12.609,11.621-21.252C418.835,340.119,414.49,332.175,407.214,327.511z M396.421,353.177l-58.487,37.488 c-2.363,1.513-4.524,0.634-5.344,0.186c-0.82-0.448-2.727-1.794-2.727-4.599v-74.977c0-2.805,1.908-4.151,2.727-4.599 c0.476-0.26,1.401-0.664,2.555-0.664c0.838,0,1.796,0.214,2.789,0.85l58.487,37.488c2.178,1.396,2.413,3.551,2.413,4.413 C398.834,349.626,398.599,351.781,396.421,353.177z"/>
<path class="cwssvgi_7" d="M71.048,282.435c-1.859-1.87-4.439-2.93-7.069-2.93s-5.21,1.06-7.07,2.93c-1.861,1.86-2.93,4.43-2.93,7.07 c0,2.63,1.07,5.21,2.93,7.07c1.86,1.86,4.44,2.93,7.07,2.93c2.629,0,5.21-1.07,7.069-2.93c1.861-1.87,2.931-4.44,2.931-7.07 S72.908,284.295,71.048,282.435z"/>
<path class="cwssvgi_8" d="M471.998,60.824h-48.002c-5.522,0-10,4.477-10,10v14.001h-49.646c-5.522,0-10,4.477-10,10s4.478,10,10,10h49.646v14.001 c0,5.523,4.478,10,10,10h14.001v55.003c0,5.523,4.478,10,10,10s10-4.477,10-10v-55.003h14.001c5.522,0,10-4.477,10-10V70.825 C481.999,65.302,477.52,60.824,471.998,60.824z M461.998,108.827h-28.001V80.825h28.001V108.827z"/>
<path class="cwssvgi_9" d="M150.983,420.841H97.981v-14.001c0-5.523-4.478-10-10-10H73.979v-71.67c0-5.523-4.478-10-10-10s-10,4.477-10,10v71.67 H39.978c-5.522,0-10,4.477-10,10v48.002c0,5.523,4.478,10,10,10H87.98c5.522,0,10-4.477,10-10v-14.001h53.003 c5.522,0,10-4.477,10-10S156.505,420.841,150.983,420.841z M77.98,444.842H49.978v-28.001H77.98V444.842z"/></svg>