<svg data-cwssvg-init  class="046-analytics-2.svg" version="1.1" xmlns="http://www.w3.org/2000/svg" xmlns:xlink="http://www.w3.org/1999/xlink" x="0px" y="0px" viewBox="0 0 512 512" style="enable-background:new 0 0 512 512;" xml:space="preserve">
<path class="cwssvgi_0" d="M407.07,377.01c-1.86-1.86-4.44-2.93-7.07-2.93s-5.21,1.07-7.07,2.93c-1.86,1.86-2.93,4.44-2.93,7.07s1.07,5.21,2.93,7.08 c1.86,1.86,4.44,2.92,7.07,2.92s5.21-1.06,7.07-2.92c1.86-1.87,2.93-4.45,2.93-7.08S408.93,378.87,407.07,377.01z"/>
<path class="cwssvgi_1" d="M502,0H135c-5.523,0-10,4.477-10,10s4.477,10,10,10h357v280h-34V171.298c0-5.523-4.477-10-10-10h-64 c-5.523,0-10,4.477-10,10V300h-22.667v-67c0-5.523-4.477-10-10-10h-64c-5.523,0-10,4.477-10,10v67h-22.667V193 c0-5.523-4.477-10-10-10h-64c-5.523,0-10,4.477-10,10v107H138v-44c0-5.523-4.477-10-10-10H64c-5.523,0-10,4.477-10,10v44H20V20h33 c5.523,0,10-4.477,10-10S58.523,0,53,0H10C4.477,0,0,4.477,0,10v374.083c0,5.523,4.477,10,10,10h187v57.854h-42.333 c-5.523,0-10,4.477-10,10V502c0,5.523,4.477,10,10,10h202.667c5.523,0,10-4.477,10-10v-40.063c0-5.523-4.477-10-10-10H313v-57.854 h46.667c5.523,0,10-4.477,10-10s-4.477-10-10-10H20V320h472v54.083h-57.333c-5.523,0-10,4.477-10,10s4.477,10,10,10H502 c5.523,0,10-4.477,10-10V10C512,4.477,507.523,0,502,0z M347.334,471.937V492h-0.001H164.667v-20.063H347.334z M217,394.084h76 v57.854h-76V394.084z M118,300H74v-34h44V300z M224.667,300h-44v-97h44V300z M331.333,300h-44v-57h44V300z M438,300h-44V181.298 h44V300z"/>
<path class="cwssvgi_2" d="M99.07,2.93C97.21,1.07,94.63,0,92,0s-5.21,1.07-7.07,2.93S82,7.37,82,10s1.07,5.21,2.93,7.07S89.37,20,92,20 s5.21-1.07,7.07-2.93S102,12.63,102,10S100.93,4.79,99.07,2.93z"/>
<path class="cwssvgi_3" d="M262.07,345.01c-1.86-1.86-4.44-2.93-7.07-2.93c-2.63,0-5.21,1.07-7.07,2.93c-1.86,1.86-2.93,4.44-2.93,7.07 c0,2.64,1.07,5.21,2.93,7.07c1.86,1.87,4.44,2.93,7.07,2.93s5.21-1.06,7.07-2.93c1.86-1.86,2.93-4.43,2.93-7.07 C265,349.45,263.93,346.87,262.07,345.01z"/>
<path class="cwssvgi_4" d="M96,108.723c-23.159,0-42,18.841-42,42c0,19.712,13.655,36.287,32,40.787v18.029c0,5.523,4.477,10,10,10s10-4.477,10-10 V191.51c18.345-4.499,32-21.075,32-40.787C138,127.564,119.159,108.723,96,108.723z M96,172.722c-12.131,0-22-9.869-22-22 s9.869-22,22-22s22,9.869,22,22S108.131,172.722,96,172.722z"/>
<path class="cwssvgi_5" d="M351.333,140.788c0-23.159-18.841-42-42-42s-42,18.841-42,42c0,19.782,13.752,36.403,32.195,40.832 c-0.126,0.634-0.195,1.288-0.195,1.959v10.458c0,5.523,4.477,10,10,10s10-4.477,10-10V183.58c0-0.671-0.069-1.325-0.195-1.959 C337.582,177.191,351.333,160.57,351.333,140.788z M309.333,162.788c-12.131,0-22-9.869-22-22c0-12.131,9.869-22,22-22 c12.131,0,22,9.869,22,22C331.333,152.919,321.464,162.788,309.333,162.788z"/>
<path class="cwssvgi_6" d="M202.667,53.874c-23.159,0-42,18.841-42,42c0,19.713,13.655,36.288,32,40.787v17.377c0,5.523,4.477,10,10,10 s10-4.477,10-10v-17.377c18.345-4.499,32-21.075,32-40.787C244.667,72.715,225.826,53.874,202.667,53.874z M202.667,117.874 c-12.131,0-22-9.869-22-22c0-12.131,9.869-22,22-22c12.131,0,22,9.869,22,22C224.667,108.005,214.798,117.874,202.667,117.874z"/>
<path class="cwssvgi_7" d="M416,43.708c-23.159,0-42,18.841-42,42c0,19.713,13.655,36.288,32,40.787v8.043c0,5.523,4.477,10,10,10s10-4.477,10-10 v-8.043c18.345-4.499,32-21.075,32-40.787C458,62.549,439.159,43.708,416,43.708z M416,107.708c-12.131,0-22-9.87-22-22 c0-12.131,9.869-22,22-22c12.131,0,22,9.869,22,22S428.131,107.708,416,107.708z"/></svg>