<svg data-cwssvg-init  class="047-pay-per-click.svg" version="1.1" xmlns="http://www.w3.org/2000/svg" xmlns:xlink="http://www.w3.org/1999/xlink" x="0px" y="0px" viewBox="0 0 512 512" style="enable-background:new 0 0 512 512;" xml:space="preserve">
<path class="cwssvgi_0" d="M103.999,235.864C46.653,235.864,0,282.518,0,339.863v68.135c0,57.345,46.653,103.999,103.999,103.999 s103.999-46.653,103.999-103.999v-68.135C207.998,282.519,161.344,235.864,103.999,235.864z M187.998,407.999 c0,46.317-37.682,83.999-83.999,83.999S20,454.317,20,407.999v-34.372h167.998V407.999z M187.998,353.628H20v-13.765 c0-42.931,32.382-78.421,73.999-83.383v69.852c0,5.523,4.477,10,10,10s10-4.477,10-10V256.48 c41.617,4.962,73.999,40.452,73.999,83.383V353.628z"/>
<path class="cwssvgi_1" d="M509.071,2.937c-3.905-3.905-10.237-3.905-14.143,0l-42.289,42.289c-3.905,3.905-3.905,10.237,0,14.143 c1.954,1.953,4.513,2.929,7.072,2.929s5.119-0.976,7.071-2.929l42.29-42.29C512.976,13.175,512.976,6.843,509.071,2.937z"/>
<path class="cwssvgi_2" d="M419.791,0.003c-5.523,0-10,4.477-10,10v27.946c0,5.522,4.477,9.999,10,9.999c5.523,0,10-4.477,10-10V10.003 C429.791,4.48,425.314,0.003,419.791,0.003z"/>
<path class="cwssvgi_3" d="M501.994,82.223h-27.946c-5.523,0-10,4.477-10,10c0,5.523,4.477,10,10,10h27.946c5.523,0,10-4.477,10-10 C511.994,86.7,507.517,82.223,501.994,82.223z"/>
<path class="cwssvgi_4" d="M422.364,89.728c-47.567-47.566-124.966-47.566-172.533,0c-21.244,21.244-32.991,48.437-35.26,76.266h-7.851 c-12.832,0-23.271-10.439-23.271-23.271V44.728c0-24.662-20.064-44.725-44.727-44.725S93.999,20.067,93.999,44.728v50.789 c0,5.523,4.477,10,10,10s10-4.477,10-10V44.728c0-13.634,11.092-24.726,24.726-24.726s24.727,11.092,24.727,24.726v97.996 c0,23.859,19.411,43.271,43.27,43.271h7.851c2.269,27.829,14.017,55.022,35.261,76.267c23.387,23.387,54.686,35.723,86.407,35.722 c17.813,0,35.761-3.892,52.508-11.901c4.981-2.384,7.089-8.355,4.706-13.337c-2.382-4.983-8.354-7.089-13.336-4.707 c-38.935,18.622-85.61,10.615-116.145-19.92c-39.771-39.77-39.771-104.479-0.001-144.248c39.77-39.771,104.479-39.771,144.248,0 c30.853,30.852,38.686,77.883,19.491,117.032c-2.431,4.959-0.382,10.95,4.577,13.381c4.959,2.43,10.95,0.382,13.381-4.577 C468.629,182.88,459.263,126.626,422.364,89.728z"/>
<path class="cwssvgi_5" d="M422.45,248.21l-0.072-0.073c-3.892-3.918-10.223-3.939-14.142-0.047c-3.918,3.892-3.939,10.224-0.047,14.142l0.072,0.072 c1.955,1.968,4.524,2.953,7.095,2.953c2.548,0,5.097-0.968,7.047-2.905C426.321,258.46,426.342,252.128,422.45,248.21z"/>
<path class="cwssvgi_6" d="M336.059,166.072c-5.497,0-9.969-3.644-9.969-8.123s4.474-8.123,9.971-8.123s9.969,3.644,9.969,8.123 c0,5.523,4.477,10,10,10s10-4.477,10-10c0-12.232-8.368-22.66-20.013-26.521c-0.437-5.12-4.724-9.141-9.957-9.141 c-5.233,0-9.52,4.021-9.957,9.141c-11.644,3.861-20.013,14.289-20.013,26.521c0,15.507,13.444,28.123,29.969,28.123 c5.497,0,9.969,3.644,9.969,8.123c0,4.479-4.472,8.123-9.969,8.123s-9.969-3.644-9.969-8.123c0-5.523-4.477-10-10-10 c-5.523,0-10,4.477-10,10c0,12.217,8.347,22.635,19.969,26.507v0.577c0,5.523,4.477,10,10,10s10-4.477,10-10v-0.577 c11.622-3.872,19.969-14.29,19.969-26.507C366.028,178.688,352.584,166.072,336.059,166.072z"/>
<path class="cwssvgi_7" d="M336.061,91.804c-46.317,0-83.999,37.682-83.999,83.999s37.682,83.999,83.999,83.999s83.999-37.682,83.999-83.999 S382.379,91.804,336.061,91.804z M336.061,239.802c-35.29,0-63.999-28.71-63.999-63.999c0-35.29,28.71-63.999,63.999-63.999 c35.29,0,63.999,28.71,63.999,63.999C400.06,211.092,371.351,239.802,336.061,239.802z"/>
<path class="cwssvgi_8" d="M111.069,128.221c-1.86-1.87-4.44-2.93-7.07-2.93s-5.21,1.06-7.07,2.93c-1.86,1.86-2.93,4.43-2.93,7.07 c0,2.63,1.07,5.2,2.93,7.07c1.86,1.859,4.44,2.93,7.07,2.93s5.21-1.07,7.07-2.93c1.86-1.87,2.93-4.44,2.93-7.07 C113.999,132.651,112.929,130.081,111.069,128.221z"/>
<path class="cwssvgi_9" d="M103.999,166.073c-5.523,0-10,4.477-10,10v28.928c0,5.523,4.477,10,10,10s10-4.477,10-10v-28.928 C113.999,170.55,109.522,166.073,103.999,166.073z"/>
<path class="cwssvgi_10" d="M471.547,364.323h-15.651c-5.523,0-10,4.477-10,10s4.477,10,10,10h15.651c5.523,0,10-4.477,10-10 S477.07,364.323,471.547,364.323z"/>
<path class="cwssvgi_11" d="M437.081,329.856c-5.523,0-10,4.477-10,10v15.651c0,5.523,4.477,10,10,10s10-4.477,10-10v-15.651 C447.081,334.333,442.604,329.856,437.081,329.856z"/>
<path class="cwssvgi_12" d="M418.265,364.323h-15.651c-5.523,0-10,4.477-10,10s4.477,10,10,10h15.651c5.523,0,10-4.477,10-10 S423.787,364.323,418.265,364.323z"/>
<path class="cwssvgi_13" d="M437.081,383.138c-5.523,0-10,4.477-10,10v15.651c0,5.523,4.477,10,10,10s10-4.477,10-10v-15.651 C447.081,387.615,442.604,383.138,437.081,383.138z"/>
<path class="cwssvgi_14" d="M155.585,397.999c-5.523,0-10,4.477-10,10c0,22.931-18.656,41.587-41.587,41.587c-5.523,0-10,4.477-10,10s4.477,10,10,10 c33.959,0,61.586-27.628,61.586-61.586C165.585,402.476,161.108,397.999,155.585,397.999z"/></svg>