<svg data-cwssvg-init  class="048-analytics-1.svg" version="1.1" xmlns="http://www.w3.org/2000/svg" xmlns:xlink="http://www.w3.org/1999/xlink" x="0px" y="0px" viewBox="0 0 512 512" style="enable-background:new 0 0 512 512;" xml:space="preserve">
<path class="cwssvgi_0" d="M111.977,244.539c-0.027,0-0.054,0-0.083,0c-5.479,0-9.943,4.42-9.988,9.908c-0.004,0.445-0.006,0.89-0.006,1.337 c0,5.518,4.473,9.99,9.99,9.99c5.518,0,9.99-4.473,9.99-9.99l0.005-1.174C121.93,249.094,117.494,244.584,111.977,244.539z"/>
<path class="cwssvgi_1" d="M399.609,245.795c-5.518,0-9.989,4.473-9.989,9.99l-0.005,1.167c-0.045,5.517,4.391,10.027,9.907,10.072 c0.028,0,0.056,0,0.083,0c5.48,0,9.943-4.419,9.988-9.908c0.004-0.444,0.006-0.887,0.006-1.331 C409.599,250.268,405.126,245.795,399.609,245.795z"/>
<path class="cwssvgi_2" d="M441.569,372.102c-16.825,0-32.279,5.974-44.357,15.909l-28.125-28.125c14.166-15.409,25.318-33.852,32.356-54.553 c1.776-5.224-1.019-10.898-6.243-12.675c-5.223-1.777-10.897,1.019-12.675,6.243c-18.455,54.28-69.402,90.75-126.776,90.75 c-59.295,0-112.187-39.737-128.626-96.635c-1.531-5.301-7.067-8.357-12.371-6.825c-5.301,1.531-8.356,7.07-6.824,12.371 c5.923,20.503,16.245,39.67,29.965,56.053l-29.226,29.227c-11.097-7.41-24.418-11.742-38.735-11.742 C31.371,372.102,0,403.473,0,442.033s31.371,69.932,69.932,69.932s69.932-31.371,69.932-69.932 c0-17.043-6.136-32.676-16.305-44.822l28.13-28.13c3.456,3.184,7.055,6.217,10.798,9.074 c18.911,14.433,40.409,24.089,63.292,28.58v30.872h-8.492c-5.518,0-9.99,4.473-9.99,9.99v53.947c0,5.518,4.473,9.99,9.99,9.99 h76.925c5.518,0,9.99-4.473,9.99-9.99v-53.947c0-5.518-4.473-9.99-9.99-9.99h-8.492v-30.908 c25.644-5.077,49.292-16.562,68.917-33.006l29.087,29.087c-7.624,11.199-12.087,24.713-12.087,39.252 c0,38.56,31.371,69.932,69.932,69.932c38.56,0,69.932-31.371,69.932-69.932C511.5,403.471,480.129,372.102,441.569,372.102z M69.932,491.986c-12.487-0.001-23.908-4.617-32.674-12.217c0.084-4.087,3.022-7.574,7.056-8.326l5.349-0.997 c5.081,4.4,11.697,7.07,18.93,7.07h2.71c7.232,0,13.848-2.671,18.93-7.07l5.349,0.997c4.026,0.751,6.959,4.224,7.055,8.3 C93.865,487.359,82.432,491.986,69.932,491.986z M59.61,448.553v-15.938c0-4.953,4.029-8.982,8.982-8.982h2.71 c4.953,0,8.982,4.029,8.982,8.982v15.938c0,1.573-0.41,3.052-1.123,4.34c-0.481,0.529-0.906,1.112-1.268,1.742 c-1.642,1.779-3.985,2.901-6.592,2.901h-2.71c-2.676-0.002-5.076-1.185-6.723-3.048c-0.304-0.508-0.648-0.985-1.032-1.426 C60.061,451.735,59.61,450.197,59.61,448.553z M115.916,461.537c-3.977-4.736-9.484-8.187-15.859-9.567 c0.133-1.122,0.209-2.262,0.209-3.419v-15.938c0-15.969-12.992-28.963-28.963-28.963h-2.71c-15.969,0-28.963,12.992-28.963,28.963 v15.938c0,1.157,0.076,2.297,0.209,3.419c-6.387,1.382-11.901,4.842-15.879,9.591c-2.56-6.002-3.978-12.602-3.978-19.528 c0-27.543,22.408-49.951,49.951-49.951s49.951,22.408,49.951,49.951C119.883,448.95,118.468,455.542,115.916,461.537z M245.76,409.316c3.311,0.21,6.641,0.319,9.99,0.319c3.351,0,6.681-0.114,9.99-0.328v28.3h-19.98V409.316z M284.222,491.555 h-56.944v-33.967h8.492h39.961h8.492V491.555z M441.569,491.986c-12.487-0.001-23.908-4.617-32.674-12.217 c0.084-4.087,3.022-7.574,7.056-8.326l5.349-0.997c5.081,4.4,11.697,7.07,18.93,7.07h2.71c7.232,0,13.848-2.671,18.93-7.07 l5.349,0.997c4.026,0.751,6.959,4.224,7.055,8.3C465.502,487.359,454.07,491.986,441.569,491.986z M431.248,448.553v-15.938 c0-4.953,4.029-8.982,8.982-8.982h2.71c4.953,0,8.982,4.029,8.982,8.982v15.937h-0.001c0,1.573-0.409,3.05-1.121,4.337 c-0.483,0.53-0.909,1.114-1.271,1.746c-1.642,1.778-3.985,2.9-6.59,2.9h-2.71c-2.676,0-5.076-1.183-6.723-3.046 c-0.304-0.508-0.648-0.986-1.033-1.427C431.699,451.736,431.248,450.197,431.248,448.553z M487.553,461.537 c-3.977-4.736-9.484-8.187-15.859-9.567c0.133-1.122,0.209-2.262,0.209-3.419v-15.938c0-15.969-12.992-28.963-28.963-28.963h-2.71 c-15.969,0-28.963,12.992-28.963,28.963v15.938c0,1.157,0.076,2.297,0.209,3.419c-6.387,1.382-11.901,4.842-15.879,9.591 c-2.56-6.002-3.978-12.602-3.978-19.528c0-27.543,22.408-49.951,49.951-49.951c27.543,0,49.951,22.408,49.951,49.951 C491.52,448.951,490.105,455.542,487.553,461.537z"/>
<path class="cwssvgi_3" d="M442.068,0.035c-38.56,0-69.932,31.371-69.932,69.932c0,16.807,5.962,32.245,15.879,44.318l-28.243,28.243 c-27.741-25.414-64.573-40.592-104.022-40.592c-37.169,0-71.865,13.324-98.876,35.951l-28.922-28.922 c7.518-11.149,11.911-24.57,11.911-38.998c0-38.56-31.371-69.932-69.932-69.932S0,31.406,0,69.967s31.371,69.932,69.932,69.932 c16.933,0,32.478-6.053,44.591-16.105l27.898,27.898c-16.596,18.038-29.024,40.183-35.534,65.101 c-1.395,5.339,1.802,10.796,7.14,12.191c0.847,0.221,1.696,0.327,2.533,0.327c4.435,0,8.486-2.976,9.659-7.468 c15.372-58.835,68.637-99.926,129.532-99.926c60.014,0,113.081,40.349,129.046,98.12c1.47,5.318,6.975,8.437,12.29,6.968 c5.318-1.47,8.438-6.972,6.968-12.29c-5.997-21.702-16.55-41.262-30.445-57.766l29.167-29.167 c11.207,7.641,24.736,12.116,39.293,12.116c38.56,0,69.932-31.371,69.932-69.932C512,31.406,480.629,0.035,442.068,0.035z M69.932,119.918c-12.487,0-23.908-4.617-32.674-12.217c0.084-4.087,3.022-7.574,7.056-8.326l5.349-0.998 c5.081,4.399,11.697,7.07,18.93,7.07h2.71c7.232,0,13.848-2.67,18.93-7.07l5.349,0.998c4.026,0.751,6.959,4.224,7.055,8.3 C93.865,115.291,82.432,119.918,69.932,119.918z M59.61,76.484V60.547c0-4.953,4.029-8.982,8.982-8.982h2.71 c4.953,0,8.982,4.029,8.982,8.982v15.938c0,1.573-0.41,3.052-1.124,4.34c-0.481,0.529-0.905,1.11-1.267,1.74 c-1.642,1.779-3.985,2.901-6.592,2.901h-2.71c-2.677,0-5.078-1.184-6.724-3.048c-0.303-0.508-0.646-0.983-1.03-1.423 C60.062,79.668,59.61,78.13,59.61,76.484z M115.916,89.471c-3.977-4.736-9.484-8.187-15.859-9.567 c0.133-1.122,0.209-2.262,0.209-3.419V60.547c0-15.969-12.992-28.963-28.963-28.963h-2.71c-15.969,0-28.963,12.992-28.963,28.963 v15.938c0,1.157,0.076,2.297,0.209,3.419c-6.387,1.382-11.901,4.842-15.879,9.591c-2.56-6.002-3.978-12.603-3.978-19.528 c0-27.544,22.408-49.951,49.951-49.951s49.951,22.408,49.951,49.951C119.883,76.883,118.468,83.475,115.916,89.471z M442.068,119.918c-12.487,0-23.908-4.617-32.674-12.217c0.084-4.087,3.022-7.574,7.056-8.326l5.349-0.998 c5.081,4.399,11.697,7.07,18.93,7.07h2.71c7.232,0,13.848-2.67,18.93-7.07l5.349,0.998c4.026,0.751,6.959,4.224,7.055,8.3 C466.002,115.291,454.569,119.918,442.068,119.918z M431.747,76.484V60.547c0-4.953,4.029-8.982,8.982-8.982h2.71 c4.953,0,8.982,4.029,8.982,8.982v15.938h-0.001c0,1.572-0.409,3.051-1.122,4.338c-0.482,0.529-0.907,1.113-1.269,1.743 c-1.642,1.778-3.985,2.9-6.591,2.9h-2.71c-2.677,0-5.078-1.184-6.724-3.048c-0.303-0.508-0.646-0.982-1.03-1.423 C432.2,79.668,431.747,78.13,431.747,76.484z M488.052,89.471c-3.977-4.736-9.484-8.187-15.859-9.567 c0.133-1.122,0.209-2.262,0.209-3.419V60.547c0-15.969-12.992-28.963-28.963-28.963h-2.71c-15.97,0-28.963,12.992-28.963,28.963 v15.938c0,1.157,0.076,2.297,0.209,3.419c-6.386,1.383-11.9,4.842-15.879,9.591c-2.56-6.002-3.978-12.602-3.978-19.528 c0-27.544,22.408-49.951,49.951-49.951s49.951,22.408,49.951,49.951C492.02,76.883,490.605,83.475,488.052,89.471z"/>
<path class="cwssvgi_4" d="M355.07,231.305l-12.529-3.121l-5.906-14.252l6.647-11.058c2.364-3.931,1.745-8.967-1.499-12.211l-20.914-20.914 c-3.245-3.243-8.281-3.862-12.211-1.499l-11.058,6.648l-14.252-5.906l-3.121-12.529c-1.109-4.452-5.107-7.576-9.695-7.576h-29.57 c-4.588,0-8.585,3.124-9.695,7.576l-3.121,12.529l-14.252,5.906l-11.058-6.648c-3.932-2.365-8.968-1.745-12.211,1.499 l-20.914,20.914c-3.244,3.244-3.861,8.28-1.499,12.211l6.648,11.058l-5.906,14.252l-12.529,3.121 c-4.452,1.109-7.576,5.107-7.576,9.695v29.57c0,4.588,3.124,8.585,7.576,9.695l12.529,3.121l5.906,14.252l-6.648,11.058 c-2.364,3.931-1.745,8.967,1.499,12.211l20.914,20.914c3.244,3.243,8.28,3.861,12.211,1.499l11.06-6.647l14.252,5.906 l3.121,12.529c1.109,4.452,5.107,7.576,9.695,7.576h29.57c4.588,0,8.585-3.124,9.695-7.576l3.121-12.529l14.251-5.906 l11.058,6.648c3.932,2.363,8.966,1.745,12.211-1.499l20.914-20.914c3.244-3.244,3.861-8.28,1.499-12.211l-6.648-11.058 l5.906-14.252l12.528-3.121c4.452-1.109,7.576-5.107,7.576-9.695V241C362.646,236.412,359.522,232.415,355.07,231.305z M342.665,262.763l-9.839,2.451c-3.073,0.766-5.602,2.943-6.814,5.869l-9.762,23.558c-1.213,2.927-0.965,6.256,0.666,8.971 l5.221,8.686l-9.872,9.872l-8.685-5.221c-2.715-1.631-6.044-1.879-8.971-0.666l-23.558,9.763 c-2.926,1.213-5.103,3.741-5.869,6.814l-2.452,9.839h-13.956l-2.452-9.839c-0.766-3.073-2.943-5.602-5.869-6.814l-23.558-9.763 c-2.928-1.213-6.257-0.965-8.971,0.666l-8.685,5.221l-9.872-9.872l5.221-8.686c1.632-2.715,1.879-6.044,0.666-8.971l-9.763-23.558 c-1.213-2.926-3.741-5.103-6.814-5.869l-9.839-2.451v-13.956l9.839-2.452c3.073-0.766,5.602-2.943,6.814-5.869l9.763-23.558 c1.213-2.927,0.965-6.256-0.666-8.971l-5.221-8.685l9.872-9.872l8.685,5.221c2.715,1.632,6.044,1.88,8.971,0.666l23.558-9.763 c2.926-1.213,5.103-3.741,5.869-6.814l2.452-9.839h13.956l2.452,9.839c0.766,3.073,2.943,5.602,5.869,6.814l23.558,9.763 c2.928,1.214,6.257,0.966,8.971-0.666l8.685-5.221l9.872,9.872l-5.221,8.685c-1.632,2.715-1.879,6.044-0.666,8.971l9.762,23.558 c1.213,2.926,3.741,5.103,6.814,5.869l9.839,2.452V262.763z"/>
<path class="cwssvgi_5" d="M255.75,211.828c-5.518,0-9.99,4.473-9.99,9.99c0,5.518,4.473,9.99,9.99,9.99c13.22,0,23.977,10.756,23.977,23.977 s-10.756,23.977-23.977,23.977s-23.977-10.756-23.977-23.977c0-2.452,0.366-4.863,1.088-7.17 c1.647-5.266-1.285-10.87-6.551-12.518c-5.266-1.648-10.87,1.285-12.518,6.551c-1.328,4.241-2,8.661-2,13.138 c0,24.238,19.719,43.957,43.957,43.957s43.957-19.719,43.957-43.957C299.707,231.548,279.989,211.828,255.75,211.828z"/></svg>