<svg data-cwssvg-init  class="049-video.svg" version="1.1" xmlns="http://www.w3.org/2000/svg" xmlns:xlink="http://www.w3.org/1999/xlink" x="0px" y="0px" viewBox="0 0 512.001 512.001" style="enable-background:new 0 0 512.001 512.001;" xml:space="preserve">
<path class="cwssvgi_0" d="M508.216,248.178l-82.219-65.329V84.011c0-5.523-4.477-10-10-10h-26.211c-5.523,0-10,4.477-10,10s4.477,10,10,10h16.212 v224.808l-62.762,49.385l-19.524-17.737c-18.572-16.872-42.618-26.163-67.709-26.163s-49.138,9.292-67.709,26.163l-19.524,17.737 l-62.762-49.385V94.011h207.268c5.523,0,10-4.477,10-10s-4.477-10-10-10H96.006c-5.523,0-10,4.477-10,10v98.837l-82.22,65.329 c-2.387,1.897-3.779,4.78-3.779,7.83v204.995c0,28.121,22.877,50.999,50.999,50.999h409.99c28.121,0,50.999-22.877,50.999-50.999 V256.008C511.995,252.958,510.603,250.075,508.216,248.178z M425.997,208.393l59.875,47.576l-59.875,47.114V208.393z M86.006,208.393v94.69L26.13,255.969L86.006,208.393z M37.337,487.599c-0.283,0.257-0.544,0.53-0.791,0.811 c-9.826-5.206-16.539-15.536-16.539-27.408V276.599L153.756,381.84L37.337,487.599z M62.235,492l33.023-29.999h94.461 c5.523,0,10-4.477,10-10s-4.477-10-10-10h-72.445l84.466-76.731c30.933-28.102,77.588-28.102,108.522,0L449.767,492H62.235z M491.994,461.002c0.001,11.872-6.712,22.201-16.539,27.407c-0.247-0.281-0.508-0.553-0.791-0.811L358.246,381.841L491.994,276.6 V461.002z"/>
<path class="cwssvgi_1" d="M359.739,76.941c-1.86-1.86-4.44-2.93-7.07-2.93c-2.64,0-5.21,1.07-7.07,2.93c-1.87,1.86-2.93,4.44-2.93,7.07 s1.06,5.21,2.93,7.07c1.86,1.86,4.429,2.93,7.07,2.93c2.63,0,5.21-1.07,7.07-2.93c1.86-1.86,2.93-4.44,2.93-7.07 S361.599,78.801,359.739,76.941z"/>
<path class="cwssvgi_2" d="M256.001,0c-5.523,0-10,4.477-10,10v35.759c0,5.523,4.477,10,10,10c5.523,0,10-4.477,10-10V10 C266.001,4.477,261.524,0,256.001,0z"/>
<path class="cwssvgi_3" d="M209.501,41.568l-10.69-21.38c-2.469-4.94-8.475-6.941-13.417-4.472c-4.94,2.47-6.942,8.477-4.472,13.417l10.691,21.38 c1.752,3.504,5.284,5.53,8.952,5.53c1.502,0,3.029-0.34,4.464-1.058C209.969,52.515,211.971,46.508,209.501,41.568z"/>
<path class="cwssvgi_4" d="M326.606,15.716c-4.941-2.471-10.947-0.468-13.417,4.472l-10.69,21.38c-2.469,4.941-0.467,10.948,4.473,13.417 c1.436,0.718,2.961,1.058,4.464,1.058c3.668,0,7.2-2.026,8.952-5.53l10.69-21.38C333.548,24.192,331.546,18.186,326.606,15.716z" />
<path class="cwssvgi_5" d="M249.402,444.932c-1.86-1.86-4.43-2.93-7.07-2.93c-2.63,0-5.21,1.07-7.07,2.93c-1.86,1.86-2.93,4.44-2.93,7.07 s1.07,5.21,2.93,7.07c1.86,1.86,4.439,2.93,7.07,2.93c2.64,0,5.21-1.07,7.07-2.93c1.87-1.86,2.93-4.44,2.93-7.07 S251.272,446.792,249.402,444.932z"/>
<path class="cwssvgi_6" d="M256.001,113.927c-52.498,0-95.208,42.71-95.208,95.209c0,52.498,42.71,95.208,95.208,95.208s95.208-42.71,95.208-95.208 S308.499,113.927,256.001,113.927z M256.001,284.345c-41.47,0-75.208-33.738-75.208-75.208c0-41.471,33.738-75.209,75.208-75.209 c41.47,0,75.208,33.738,75.208,75.209C331.21,250.606,297.471,284.345,256.001,284.345z"/>
<path class="cwssvgi_7" d="M296.548,188.667l-42.384-24.471c-7.399-4.273-16.236-4.272-23.634,0c-7.4,4.272-11.818,11.925-11.818,20.469v48.942 c0,8.545,4.418,16.197,11.818,20.469c3.7,2.136,7.758,3.204,11.817,3.204s8.118-1.068,11.818-3.205l42.384-24.47 c7.4-4.272,11.818-11.924,11.819-20.468C308.367,200.592,303.949,192.939,296.548,188.667z M286.549,212.285l-42.385,24.471 c-1.581,0.914-2.956,0.392-3.636,0c-0.679-0.392-1.818-1.322-1.818-3.149v-48.942c0-1.827,1.139-2.757,1.818-3.149 c0.401-0.231,1.044-0.508,1.829-0.508c0.545,0,1.159,0.134,1.807,0.508l42.385,24.471c1.582,0.914,1.818,2.365,1.818,3.149 C288.367,209.92,288.131,211.371,286.549,212.285z"/></svg>